<svg viewBox="0 0 406.228 337.449" xmlns="http://www.w3.org/2000/svg" xmlns:xlink="http://www.w3.org/1999/xlink" width="406.228271" height="337.448975" fill="none" clip-path="url(#clipPath_16)" customFrame="url(#clipPath_16)">
	<defs>
		<clipPath id="clipPath_16">
			<rect width="406.228302" height="337.448914" x="0.000000" y="0.000000" rx="32.240341" fill="rgb(255,255,255)" />
		</clipPath>
		<clipPath id="clipPath_17">
			<rect width="599.037598" height="470.840057" x="0.000000" y="0.000000" rx="20.445749" fill="rgb(255,255,255)" transform="matrix(0.984808,0.173648,-0.173648,0.984808,-51.5847,-114.991)" />
		</clipPath>
		<clipPath id="clipPath_18">
			<rect width="599.037598" height="152.548111" x="0.000000" y="0.000000" fill="rgb(255,255,255)" transform="matrix(0.984808,0.173648,-0.173648,0.984808,-51.5847,-114.991)" />
		</clipPath>
		<clipPath id="clipPath_19">
			<rect width="114.411125" height="152.548172" x="0.000000" y="0.000000" rx="20.445749" fill="rgb(255,255,255)" transform="matrix(0.984808,0.173648,-0.174411,0.984673,-51.4685,-114.97)" />
		</clipPath>
		<clipPath id="clipPath_20">
			<rect width="114.411125" height="152.548172" x="0.000000" y="0.000000" rx="20.445749" fill="rgb(255,255,255)" transform="matrix(0.984808,0.173648,-0.174411,0.984673,67.8184,-93.9365)" />
		</clipPath>
		<clipPath id="clipPath_21">
			<rect width="114.411125" height="152.548172" x="0.000000" y="0.000000" rx="20.445749" fill="rgb(255,255,255)" transform="matrix(0.984808,0.173648,-0.174411,0.984673,187.105,-72.9031)" />
		</clipPath>
		<clipPath id="clipPath_22">
			<rect width="114.411125" height="152.548172" x="0.000000" y="0.000000" rx="20.445749" fill="rgb(255,255,255)" transform="matrix(0.984808,0.173648,-0.174411,0.984673,306.392,-51.8696)" />
		</clipPath>
		<clipPath id="clipPath_23">
			<rect width="114.411125" height="152.548172" x="0.000000" y="0.000000" rx="20.445749" fill="rgb(255,255,255)" transform="matrix(0.984808,0.173648,-0.174411,0.984673,425.679,-30.8361)" />
		</clipPath>
		<clipPath id="clipPath_24">
			<rect width="599.037598" height="152.548111" x="0.000000" y="0.000000" fill="rgb(255,255,255)" transform="matrix(0.984808,0.173648,-0.173648,0.984808,-79.2202,41.7378)" />
		</clipPath>
		<clipPath id="clipPath_25">
			<rect width="114.411125" height="152.548172" x="0.000000" y="0.000000" rx="20.445749" fill="rgb(255,255,255)" transform="matrix(0.984808,0.173648,-0.174411,0.984673,-79.104,41.7582)" />
		</clipPath>
		<clipPath id="clipPath_26">
			<rect width="114.411125" height="152.548172" x="0.000000" y="0.000000" rx="20.445749" fill="rgb(255,255,255)" transform="matrix(0.984808,0.173648,-0.174411,0.984673,40.1833,62.7917)" />
		</clipPath>
		<clipPath id="clipPath_27">
			<rect width="114.411125" height="152.548172" x="0.000000" y="0.000000" rx="20.445749" fill="rgb(255,255,255)" transform="matrix(0.984808,0.173648,-0.174411,0.984673,159.47,83.8252)" />
		</clipPath>
		<clipPath id="clipPath_28">
			<rect width="114.411125" height="152.548172" x="0.000000" y="0.000000" rx="20.445749" fill="rgb(255,255,255)" transform="matrix(0.984808,0.173648,-0.174411,0.984673,278.757,104.859)" />
		</clipPath>
		<clipPath id="clipPath_29">
			<rect width="114.411125" height="152.548172" x="0.000000" y="0.000000" rx="20.445749" fill="rgb(255,255,255)" transform="matrix(0.984808,0.173648,-0.174411,0.984673,398.044,125.892)" />
		</clipPath>
		<clipPath id="clipPath_30">
			<rect width="599.037598" height="152.548111" x="0.000000" y="0.000000" fill="rgb(255,255,255)" transform="matrix(0.984808,0.173648,-0.173648,0.984808,-106.855,198.466)" />
		</clipPath>
		<clipPath id="clipPath_31">
			<rect width="114.411125" height="152.548172" x="0.000000" y="0.000000" rx="20.445749" fill="rgb(255,255,255)" transform="matrix(0.984808,0.173648,-0.174411,0.984673,-106.739,198.486)" />
		</clipPath>
		<clipPath id="clipPath_32">
			<rect width="114.411125" height="152.548172" x="0.000000" y="0.000000" rx="20.445749" fill="rgb(255,255,255)" transform="matrix(0.984808,0.173648,-0.174411,0.984673,12.5479,219.52)" />
		</clipPath>
		<clipPath id="clipPath_33">
			<rect width="114.411125" height="152.548172" x="0.000000" y="0.000000" rx="20.445749" fill="rgb(255,255,255)" transform="matrix(0.984808,0.173648,-0.174411,0.984673,131.834,240.553)" />
		</clipPath>
		<clipPath id="clipPath_34">
			<rect width="114.411125" height="152.548172" x="0.000000" y="0.000000" rx="20.445749" fill="rgb(255,255,255)" transform="matrix(0.984808,0.173648,-0.174411,0.984673,251.122,261.587)" />
		</clipPath>
		<clipPath id="clipPath_35">
			<rect width="114.411125" height="152.548172" x="0.000000" y="0.000000" rx="20.445749" fill="rgb(255,255,255)" transform="matrix(0.984808,0.173648,-0.174411,0.984673,370.408,282.62)" />
		</clipPath>
		<g id="pixso_custom_effect_0">
			<effect x="0.000000" y="16.405922" visibility="visible" fill="rgb(0,0,0)" fill-opacity="0.300000012" effectType="dropShadow" stdDeviation="54.9598465" radius="-9.84355164" />
		</g>
		<filter id="filter_0" width="265.812012" height="305.798340" x="69.665771" y="32.282959" filterUnits="userSpaceOnUse" customEffect="url(#pixso_custom_effect_0)" color-interpolation-filters="sRGB">
			<feFlood flood-opacity="0" result="BackgroundImageFix" />
			<feColorMatrix result="hardAlpha" in="SourceAlpha" type="matrix" values="0 0 0 0 0 0 0 0 0 0 0 0 0 0 0 0 0 0 127 0 " />
			<feOffset dx="2296.000000" dy="1794.405762" in="hardAlpha" />
			<feMorphology radius="9.84355164" operator="erode" />
			<feOffset dx="-2296.000000" dy="-1777.999878" />
			<feGaussianBlur stdDeviation="18.3199482" />
			<feComposite k2="-1" k3="1" in2="hardAlpha" operator="out" />
			<feColorMatrix type="matrix" values="0 0 0 0 0 0 0 0 0 0 0 0 0 0 0 0 0 0 0.3 0 " />
			<feBlend result="effect_dropShadow_1" in2="BackgroundImageFix" mode="normal" />
			<feBlend result="shape" in="SourceGraphic" in2="effect_dropShadow_1" mode="normal" />
		</filter>
		<clipPath id="clipPath_36">
			<rect width="149.811508" height="199.294388" x="-0.681525" y="-0.681525" rx="21.127274" fill="rgb(255,255,255)" transform="matrix(0.984808,0.173648,-0.174411,0.984673,146.736,58.4386)" />
		</clipPath>
	</defs>
	<rect id="Обложка карточки" width="406.228302" height="337.448914" x="0.000000" y="0.000000" rx="32.240341" fill="rgb(153,209,0)" />
	<g id="Group 1597880559">
		<g id="Frame 2043683114" customFrame="url(#clipPath_17)">
			<rect id="Frame 2043683114" width="599.037598" height="470.840057" x="0.000000" y="0.000000" rx="20.445749" transform="matrix(0.984808,0.173648,-0.173648,0.984808,-51.5847,-114.991)" />
			<g id="Frame 2043683111" customFrame="url(#clipPath_18)">
				<rect id="Frame 2043683111" width="599.037598" height="152.548111" x="0.000000" y="0.000000" transform="matrix(0.984808,0.173648,-0.173648,0.984808,-51.5847,-114.991)" />
				<g id="Frame 2043683103" customFrame="url(#clipPath_19)">
					<rect id="Frame 2043683103" width="114.411125" height="152.548172" x="0.000000" y="0.000000" rx="20.445749" fill="rgb(188,236,48)" transform="matrix(0.984808,0.173648,-0.174411,0.984673,-51.4685,-114.97)" />
					<rect id="Frame 2043683103" width="113.729599" height="151.866653" x="0.340762" y="0.340762" rx="20.104986" stroke="rgb(32,32,39)" stroke-width="0.681524932" transform="matrix(0.984808,0.173648,-0.174411,0.984673,-51.4685,-114.97)" />
					<path id="?" d="M11.4427 34.463C11.4427 32.7036 11.8298 31.2609 12.604 30.1348C13.3781 28.9736 14.5041 27.7068 15.9821 26.3345C17.0025 25.3844 17.7591 24.5926 18.2517 23.9592C18.7444 23.2907 18.9907 22.5869 18.9907 21.8479C18.9907 20.8275 18.5508 20.0181 17.6711 19.4199C16.8266 18.7865 15.7181 18.4698 14.3458 18.4698C12.9383 18.4698 11.6539 18.8041 10.4927 19.4727C9.36663 20.1413 8.45173 21.0738 7.74796 22.2702L-0.116671 18.0476C1.32606 15.5844 3.36699 13.6666 6.00613 12.2943C8.64526 10.9219 11.8298 10.2357 15.5598 10.2357C19.7472 10.2357 23.1077 11.1154 25.6413 12.8749C28.2101 14.5991 29.4944 17.0271 29.4944 20.1589C29.4944 21.6016 29.2481 22.886 28.7555 24.012C28.2628 25.1029 27.6646 26.0354 26.9609 26.8095C26.2923 27.5485 25.4126 28.393 24.3217 29.3431C23.1253 30.3636 22.2456 31.2433 21.6826 31.9822C21.1196 32.686 20.8381 33.5129 20.8381 34.463L11.4427 34.463ZM16.1404 48.3977C14.4162 48.3977 12.991 47.8698 11.865 46.8142C10.739 45.7233 10.176 44.4038 10.176 42.8555C10.176 41.272 10.7214 39.97 11.8122 38.9495C12.9383 37.9291 14.381 37.4188 16.1404 37.4188C17.8998 37.4188 19.3426 37.9291 20.4686 38.9495C21.5946 39.97 22.1576 41.272 22.1576 42.8555C22.1576 44.4038 21.5946 45.7233 20.4686 46.8142C19.3426 47.8698 17.8998 48.3977 16.1404 48.3977Z" fill="rgb(255,255,255)" fill-rule="nonzero" transform="matrix(0.984808,0.173648,-0.174411,0.984673,-19.134,-61.2654)" />
					<path id="?" d="M12.1509 29.8233Q10.8929 31.6531 10.8929 34.463L10.8929 35.0128L21.3879 35.0128L21.3879 34.463Q21.3879 33.676 21.6832 33.0224Q21.8503 32.6527 22.1119 32.3257L22.116 32.3207L22.1199 32.3154Q22.9288 31.2539 24.6828 29.7577Q26.3437 28.3111 27.3677 27.1794Q28.4818 25.9538 29.2592 24.2324Q30.0443 22.438 30.0443 20.1589Q30.0443 17.6736 29.0172 15.732Q28.9495 15.604 28.8774 15.4785Q27.8552 13.6987 25.9549 12.4233Q22.0131 9.68592 15.5598 9.68592Q9.83042 9.68592 5.75247 11.8065Q3.17471 13.1469 1.33051 15.1595Q0.241908 16.3475 -0.591101 17.7697L-0.87949 18.2621L7.95376 23.0048L8.22186 22.549Q8.97385 21.2706 10.0629 20.4278Q10.3989 20.1678 10.767 19.9492Q11.2567 19.6673 11.7785 19.4708Q12.9773 19.0197 14.3458 19.0197Q16.2211 19.0197 17.3412 19.8598L17.3514 19.8674L17.3619 19.8746Q17.9115 20.2483 18.1777 20.7381Q18.18 20.7424 18.1823 20.7467Q18.4409 21.2279 18.4409 21.8479Q18.4409 21.9978 18.4244 22.1458Q18.3392 22.9111 17.8132 23.6274Q17.1011 24.5413 15.6079 25.9316Q13.3436 28.0341 12.1509 29.8233ZM18.2517 23.9592C17.7591 24.5926 17.0025 25.3844 15.9821 26.3345Q13.7652 28.393 12.604 30.1348Q11.5661 31.6445 11.4558 33.9132Q11.4427 34.1827 11.4427 34.463L20.8381 34.463C20.8381 33.5129 21.1196 32.686 21.6826 31.9822C22.2456 31.2433 23.1253 30.3636 24.3217 29.3431C25.4126 28.393 26.2923 27.5485 26.9609 26.8095C27.6646 26.0354 28.2628 25.1029 28.7555 24.012C29.2481 22.886 29.4944 21.6016 29.4944 20.1589C29.4944 17.0271 28.2101 14.5991 25.6413 12.8749Q21.8409 10.2357 15.5598 10.2357Q9.96483 10.2357 6.00613 12.2943Q3.49853 13.5982 1.71101 15.5587Q0.858713 16.4935 0.170124 17.5775Q0.0229914 17.8091 -0.116671 18.0476L0.36809 18.3079L7.74796 22.2702C8.45173 21.0738 9.36663 20.1413 10.4927 19.4727C11.6539 18.8041 12.9383 18.4698 14.3458 18.4698C15.7181 18.4698 16.8266 18.7865 17.6711 19.4199C18.5508 20.0181 18.9907 20.8275 18.9907 21.8479C18.9907 22.5869 18.7444 23.2907 18.2517 23.9592ZM12.7487 48.1352Q14.2204 48.9475 16.1404 48.9475Q18.1717 48.9475 19.6961 48.0685Q20.3154 47.7113 20.8512 47.2091Q21.8139 46.2764 22.2774 45.14Q22.7075 44.0855 22.7075 42.8555Q22.7075 41.3977 22.1282 40.2265Q21.6668 39.2934 20.8378 38.5421Q20.3804 38.1276 19.8613 37.8158Q18.2852 36.869 16.1404 36.869Q14.0132 36.869 12.4418 37.8036Q11.907 38.1217 11.4366 38.548Q10.6818 39.2541 10.2417 40.1201Q9.62614 41.3313 9.62614 42.8555Q9.62614 44.0708 10.0475 45.1163Q10.5121 46.269 11.489 47.2153Q12.0714 47.7613 12.7487 48.1352ZM11.865 46.8142C12.991 47.8698 14.4162 48.3977 16.1404 48.3977C17.8998 48.3977 19.3426 47.8698 20.4686 46.8142C21.5946 45.7233 22.1576 44.4038 22.1576 42.8555C22.1576 41.272 21.5946 39.97 20.4686 38.9495C19.3426 37.9291 17.8998 37.4188 16.1404 37.4188C14.381 37.4188 12.9383 37.9291 11.8122 38.9495C10.7214 39.97 10.176 41.272 10.176 42.8555Q10.176 43.969 10.5642 44.9248Q10.9858 45.9624 11.865 46.8142Z" fill="rgb(32,32,39)" fill-rule="evenodd" transform="matrix(0.984808,0.173648,-0.174411,0.984673,-19.134,-61.2654)" />
				</g>
				<g id="Frame 2043683100" customFrame="url(#clipPath_20)">
					<rect id="Frame 2043683100" width="114.411125" height="152.548172" x="0.000000" y="0.000000" rx="20.445749" fill="rgb(188,236,48)" transform="matrix(0.984808,0.173648,-0.174411,0.984673,67.8184,-93.9365)" />
					<rect id="Frame 2043683100" width="113.729599" height="151.866653" x="0.340762" y="0.340762" rx="20.104986" stroke="rgb(32,32,39)" stroke-width="0.681524932" transform="matrix(0.984808,0.173648,-0.174411,0.984673,67.8184,-93.9365)" />
					<path id="?" d="M11.4427 34.463C11.4427 32.7036 11.8298 31.2609 12.604 30.1348C13.3781 28.9736 14.5041 27.7068 15.9821 26.3345C17.0025 25.3844 17.7591 24.5926 18.2517 23.9592C18.7444 23.2907 18.9907 22.5869 18.9907 21.8479C18.9907 20.8275 18.5508 20.0181 17.6711 19.4199C16.8266 18.7865 15.7181 18.4698 14.3458 18.4698C12.9383 18.4698 11.6539 18.8041 10.4927 19.4727C9.36663 20.1413 8.45173 21.0738 7.74796 22.2702L-0.116671 18.0476C1.32606 15.5844 3.36699 13.6666 6.00613 12.2943C8.64526 10.9219 11.8298 10.2357 15.5598 10.2357C19.7472 10.2357 23.1077 11.1154 25.6413 12.8749C28.2101 14.5991 29.4944 17.0271 29.4944 20.1589C29.4944 21.6016 29.2481 22.886 28.7555 24.012C28.2628 25.1029 27.6646 26.0354 26.9609 26.8095C26.2923 27.5485 25.4126 28.393 24.3217 29.3431C23.1253 30.3636 22.2456 31.2433 21.6826 31.9822C21.1196 32.686 20.8381 33.5129 20.8381 34.463L11.4427 34.463ZM16.1404 48.3977C14.4162 48.3977 12.991 47.8698 11.865 46.8142C10.739 45.7233 10.176 44.4038 10.176 42.8555C10.176 41.272 10.7214 39.97 11.8122 38.9495C12.9383 37.9291 14.381 37.4188 16.1404 37.4188C17.8998 37.4188 19.3426 37.9291 20.4686 38.9495C21.5946 39.97 22.1576 41.272 22.1576 42.8555C22.1576 44.4038 21.5946 45.7233 20.4686 46.8142C19.3426 47.8698 17.8998 48.3977 16.1404 48.3977Z" fill="rgb(255,255,255)" fill-rule="nonzero" transform="matrix(0.984808,0.173648,-0.174411,0.984673,100.153,-40.2317)" />
					<path id="?" d="M12.1509 29.8233Q10.8929 31.6531 10.8929 34.463L10.8929 35.0128L21.3879 35.0128L21.3879 34.463Q21.3879 33.676 21.6832 33.0224Q21.8503 32.6527 22.1119 32.3257L22.116 32.3207L22.1199 32.3154Q22.9288 31.2539 24.6828 29.7577Q26.3437 28.3111 27.3677 27.1794Q28.4818 25.9538 29.2592 24.2324Q30.0443 22.438 30.0443 20.1589Q30.0443 17.6736 29.0172 15.732Q28.9495 15.604 28.8774 15.4785Q27.8552 13.6987 25.9549 12.4233Q22.0131 9.68592 15.5598 9.68592Q9.83042 9.68592 5.75247 11.8065Q3.17471 13.1469 1.33051 15.1595Q0.241908 16.3475 -0.591101 17.7697L-0.87949 18.2621L7.95376 23.0048L8.22186 22.549Q8.97385 21.2706 10.0629 20.4278Q10.3989 20.1678 10.767 19.9492Q11.2567 19.6673 11.7785 19.4708Q12.9773 19.0197 14.3458 19.0197Q16.2211 19.0197 17.3412 19.8598L17.3514 19.8674L17.3619 19.8746Q17.9115 20.2483 18.1777 20.7381Q18.18 20.7424 18.1823 20.7467Q18.4409 21.2279 18.4409 21.8479Q18.4409 21.9978 18.4244 22.1458Q18.3392 22.9111 17.8132 23.6274Q17.1011 24.5413 15.6079 25.9316Q13.3436 28.0341 12.1509 29.8233ZM18.2517 23.9592C17.7591 24.5926 17.0025 25.3844 15.9821 26.3345Q13.7652 28.393 12.604 30.1348Q11.5661 31.6445 11.4558 33.9132Q11.4427 34.1827 11.4427 34.463L20.8381 34.463C20.8381 33.5129 21.1196 32.686 21.6826 31.9822C22.2456 31.2433 23.1253 30.3636 24.3217 29.3431C25.4126 28.393 26.2923 27.5485 26.9609 26.8095C27.6646 26.0354 28.2628 25.1029 28.7555 24.012C29.2481 22.886 29.4944 21.6016 29.4944 20.1589C29.4944 17.0271 28.2101 14.5991 25.6413 12.8749Q21.8409 10.2357 15.5598 10.2357Q9.96483 10.2357 6.00613 12.2943Q3.49853 13.5982 1.71101 15.5587Q0.858713 16.4935 0.170124 17.5775Q0.0229914 17.8091 -0.116671 18.0476L0.36809 18.3079L7.74796 22.2702C8.45173 21.0738 9.36663 20.1413 10.4927 19.4727C11.6539 18.8041 12.9383 18.4698 14.3458 18.4698C15.7181 18.4698 16.8266 18.7865 17.6711 19.4199C18.5508 20.0181 18.9907 20.8275 18.9907 21.8479C18.9907 22.5869 18.7444 23.2907 18.2517 23.9592ZM12.7487 48.1352Q14.2204 48.9475 16.1404 48.9475Q18.1717 48.9475 19.6961 48.0685Q20.3154 47.7113 20.8512 47.2091Q21.8139 46.2764 22.2774 45.14Q22.7075 44.0855 22.7075 42.8555Q22.7075 41.3977 22.1282 40.2265Q21.6668 39.2934 20.8378 38.5421Q20.3804 38.1276 19.8613 37.8158Q18.2852 36.869 16.1404 36.869Q14.0132 36.869 12.4418 37.8036Q11.907 38.1217 11.4366 38.548Q10.6818 39.2541 10.2417 40.1201Q9.62614 41.3313 9.62614 42.8555Q9.62614 44.0708 10.0475 45.1163Q10.5121 46.269 11.489 47.2153Q12.0714 47.7613 12.7487 48.1352ZM11.865 46.8142C12.991 47.8698 14.4162 48.3977 16.1404 48.3977C17.8998 48.3977 19.3426 47.8698 20.4686 46.8142C21.5946 45.7233 22.1576 44.4038 22.1576 42.8555C22.1576 41.272 21.5946 39.97 20.4686 38.9495C19.3426 37.9291 17.8998 37.4188 16.1404 37.4188C14.381 37.4188 12.9383 37.9291 11.8122 38.9495C10.7214 39.97 10.176 41.272 10.176 42.8555Q10.176 43.969 10.5642 44.9248Q10.9858 45.9624 11.865 46.8142Z" fill="rgb(32,32,39)" fill-rule="evenodd" transform="matrix(0.984808,0.173648,-0.174411,0.984673,100.153,-40.2317)" />
				</g>
				<g id="Frame 2043683094" customFrame="url(#clipPath_21)">
					<rect id="Frame 2043683094" width="114.411125" height="152.548172" x="0.000000" y="0.000000" rx="20.445749" fill="rgb(188,236,48)" transform="matrix(0.984808,0.173648,-0.174411,0.984673,187.105,-72.9031)" />
					<rect id="Frame 2043683094" width="113.729599" height="151.866653" x="0.340762" y="0.340762" rx="20.104986" stroke="rgb(32,32,39)" stroke-width="0.681524932" transform="matrix(0.984808,0.173648,-0.174411,0.984673,187.105,-72.9031)" />
					<path id="?" d="M14.3511 42.7716C14.3511 40.5908 14.8309 38.8024 15.7905 37.4067C16.7501 35.9673 18.1458 34.3971 19.9778 32.696C21.2427 31.5183 22.1805 30.5369 22.7911 29.7518C23.4017 28.923 23.7071 28.0507 23.7071 27.1347C23.7071 25.8698 23.1619 24.8666 22.0714 24.1251C21.0246 23.34 19.6506 22.9474 17.9495 22.9474C16.2048 22.9474 14.6128 23.3618 13.1734 24.1905C11.7777 25.0193 10.6436 26.1751 9.77125 27.6581L0.0227128 22.424C1.81103 19.3708 4.34086 16.9936 7.61218 15.2925C10.8835 13.5915 14.8309 12.7409 19.4544 12.7409C24.6448 12.7409 28.8103 13.8314 31.9508 16.0122C35.1349 18.1495 36.7269 21.1591 36.7269 25.0411C36.7269 26.8294 36.4216 28.4214 35.811 29.8172C35.2003 31.1693 34.4588 32.3252 33.5865 33.2848C32.7577 34.2008 31.6673 35.2476 30.3151 36.4253C28.8321 37.6902 27.7417 38.7806 27.0438 39.6966C26.3459 40.5689 25.997 41.594 25.997 42.7716L14.3511 42.7716ZM20.174 60.0442C18.0368 60.0442 16.2703 59.3899 14.8745 58.0814C13.4787 56.7293 12.7809 55.0936 12.7809 53.1744C12.7809 51.2116 13.4569 49.5978 14.8091 48.3329C16.2048 47.068 17.9932 46.4355 20.174 46.4355C22.3549 46.4355 24.1432 47.068 25.539 48.3329C26.9348 49.5978 27.6327 51.2116 27.6327 53.1744C27.6327 55.0936 26.9348 56.7293 25.539 58.0814C24.1432 59.3899 22.3549 60.0442 20.174 60.0442Z" fill="rgb(255,255,255)" fill-rule="nonzero" transform="matrix(0.984808,0.173648,-0.174411,0.984673,216.721,-26.7856)" />
					<path id="?" d="M15.3374 37.0952Q13.8013 39.3295 13.8013 42.7716L13.8013 43.3214L26.5468 43.3214L26.5468 42.7716Q26.5468 41.7731 26.9198 40.9419Q27.1346 40.4632 27.4732 40.0401L27.4771 40.0351L27.4812 40.0298Q28.4923 38.7027 30.6762 36.8399Q32.7291 35.0519 33.9933 33.6547Q35.3603 32.151 36.3147 30.0376Q37.2767 27.8386 37.2767 25.0411Q37.2767 21.9931 36.0189 19.6153Q35.945 19.4756 35.8669 19.3384Q34.6137 17.1375 32.2644 15.5606Q27.4123 12.1911 19.4544 12.1911Q12.3847 12.1911 7.35852 14.8047Q4.18006 16.4575 1.90765 18.9398Q0.571295 20.3995 -0.451718 22.1461L-0.740107 22.6385L9.97705 28.3927L10.2452 27.9369Q11.1822 26.344 12.5375 25.2879Q12.9712 24.95 13.4478 24.667Q14.0697 24.3089 14.7327 24.0605Q16.2356 23.4973 17.9495 23.4973Q20.3179 23.4973 21.7415 24.565L21.7517 24.5726L21.7622 24.5798Q22.4698 25.0609 22.8151 25.6962Q22.8247 25.7139 22.834 25.7317Q23.1573 26.3485 23.1573 27.1347Q23.1573 27.34 23.1333 27.5424Q23.0185 28.5138 22.3526 29.42Q21.4635 30.5615 19.6036 32.2931Q16.8083 34.8888 15.3374 37.0952ZM22.7911 29.7518Q21.8751 30.9295 19.9778 32.696Q17.2299 35.2476 15.7905 37.4067C14.9128 38.6833 14.4365 40.2884 14.3616 42.2218C14.3546 42.4022 14.3511 42.5855 14.3511 42.7716L25.997 42.7716Q25.997 41.677 26.399 40.7582Q26.6457 40.1943 27.0438 39.6966C27.7417 38.7806 28.8321 37.6902 30.3151 36.4253Q32.3434 34.6588 33.5865 33.2848C34.4588 32.3252 35.2003 31.1693 35.811 29.8172C36.4216 28.4214 36.7269 26.8294 36.7269 25.0411C36.7269 21.1591 35.1349 18.1495 31.9508 16.0122Q27.2401 12.7409 19.4544 12.7409Q12.5192 12.7409 7.61218 15.2925C4.51102 16.9051 2.07624 19.1253 0.30781 21.953C0.210771 22.1082 0.115739 22.2652 0.0227128 22.424L0.50747 22.6843L9.77125 27.6581Q10.7287 26.0304 12.1065 24.9282Q12.6117 24.524 13.1734 24.1905C14.6128 23.3618 16.2048 22.9474 17.9495 22.9474C19.6506 22.9474 21.0246 23.34 22.0714 24.1251C23.1619 24.8666 23.7071 25.8698 23.7071 27.1347Q23.7071 27.4232 23.6667 27.706Q23.5147 28.7697 22.7911 29.7518ZM16.0196 59.5955Q17.8199 60.594 20.174 60.594Q22.6702 60.594 24.5367 59.51Q25.2789 59.0788 25.9216 58.4763Q27.095 57.3395 27.6594 55.9546Q28.1825 54.6711 28.1825 53.1744Q28.1825 51.3967 27.4752 49.9693Q26.9142 48.8371 25.9082 47.9255Q25.3589 47.4276 24.7362 47.0513Q22.8073 45.8857 20.174 45.8857Q17.5583 45.8857 15.6341 47.0392Q14.9957 47.4218 14.4335 47.9314Q13.5186 48.7872 12.9838 49.8367Q12.231 51.3138 12.231 53.1744Q12.231 54.6565 12.7455 55.931Q13.311 57.3323 14.4985 58.4825Q15.2019 59.142 16.0196 59.5955ZM14.8745 58.0814C16.2703 59.3899 18.0368 60.0442 20.174 60.0442C22.3549 60.0442 24.1432 59.3899 25.539 58.0814Q26.6288 57.0257 27.1514 55.7394Q27.6327 54.5547 27.6327 53.1744C27.6327 51.2116 26.9348 49.5978 25.539 48.3329C24.1432 47.068 22.3549 46.4355 20.174 46.4355C17.9932 46.4355 16.2048 47.068 14.8091 48.3329C13.4569 49.5978 12.7809 51.2116 12.7809 53.1744Q12.7809 54.5547 13.2622 55.7394Q13.7847 57.0257 14.8745 58.0814Z" fill="rgb(32,32,39)" fill-rule="evenodd" transform="matrix(0.984808,0.173648,-0.174411,0.984673,216.721,-26.7856)" />
				</g>
				<g id="Frame 2043683095" customFrame="url(#clipPath_22)">
					<rect id="Frame 2043683095" width="114.411125" height="152.548172" x="0.000000" y="0.000000" rx="20.445749" fill="rgb(188,236,48)" transform="matrix(0.984808,0.173648,-0.174411,0.984673,306.392,-51.8696)" />
					<rect id="Frame 2043683095" width="113.729599" height="151.866653" x="0.340762" y="0.340762" rx="20.104986" stroke="rgb(32,32,39)" stroke-width="0.681524932" transform="matrix(0.984808,0.173648,-0.174411,0.984673,306.392,-51.8696)" />
					<path id="?" d="M14.3511 42.7716C14.3511 40.5908 14.8309 38.8024 15.7905 37.4067C16.7501 35.9673 18.1458 34.3971 19.9778 32.696C21.2427 31.5183 22.1805 30.5369 22.7911 29.7518C23.4017 28.923 23.7071 28.0507 23.7071 27.1347C23.7071 25.8698 23.1619 24.8666 22.0714 24.1251C21.0246 23.34 19.6506 22.9474 17.9495 22.9474C16.2048 22.9474 14.6128 23.3618 13.1734 24.1905C11.7777 25.0193 10.6436 26.1751 9.77125 27.6581L0.0227128 22.424C1.81103 19.3708 4.34086 16.9936 7.61218 15.2925C10.8835 13.5915 14.8309 12.7409 19.4544 12.7409C24.6448 12.7409 28.8103 13.8314 31.9508 16.0122C35.1349 18.1495 36.7269 21.1591 36.7269 25.0411C36.7269 26.8294 36.4216 28.4214 35.811 29.8172C35.2003 31.1693 34.4588 32.3252 33.5865 33.2848C32.7577 34.2008 31.6673 35.2476 30.3151 36.4253C28.8321 37.6902 27.7417 38.7806 27.0438 39.6966C26.3459 40.5689 25.997 41.594 25.997 42.7716L14.3511 42.7716ZM20.174 60.0442C18.0368 60.0442 16.2703 59.3899 14.8745 58.0814C13.4787 56.7293 12.7809 55.0936 12.7809 53.1744C12.7809 51.2116 13.4569 49.5978 14.8091 48.3329C16.2048 47.068 17.9932 46.4355 20.174 46.4355C22.3549 46.4355 24.1432 47.068 25.539 48.3329C26.9348 49.5978 27.6327 51.2116 27.6327 53.1744C27.6327 55.0936 26.9348 56.7293 25.539 58.0814C24.1432 59.3899 22.3549 60.0442 20.174 60.0442Z" fill="rgb(255,255,255)" fill-rule="nonzero" transform="matrix(0.984808,0.173648,-0.174411,0.984673,336.008,-5.75208)" />
					<path id="?" d="M15.3374 37.0952Q13.8013 39.3295 13.8013 42.7716L13.8013 43.3214L26.5468 43.3214L26.5468 42.7716Q26.5468 41.7731 26.9198 40.9419Q27.1346 40.4632 27.4732 40.0401L27.4771 40.0351L27.4812 40.0298Q28.4923 38.7027 30.6762 36.8399Q32.7291 35.0519 33.9933 33.6547Q35.3603 32.151 36.3147 30.0376Q37.2767 27.8386 37.2767 25.0411Q37.2767 21.9931 36.0189 19.6153Q35.945 19.4756 35.8669 19.3384Q34.6137 17.1375 32.2644 15.5606Q27.4123 12.1911 19.4544 12.1911Q12.3847 12.1911 7.35852 14.8047Q4.18006 16.4575 1.90765 18.9398Q0.571295 20.3995 -0.451718 22.1461L-0.740107 22.6385L9.97705 28.3927L10.2452 27.9369Q11.1822 26.344 12.5375 25.2879Q12.9712 24.95 13.4478 24.667Q14.0697 24.3089 14.7327 24.0605Q16.2356 23.4973 17.9495 23.4973Q20.3179 23.4973 21.7415 24.565L21.7517 24.5726L21.7622 24.5798Q22.4698 25.0609 22.8151 25.6962Q22.8247 25.7139 22.834 25.7317Q23.1573 26.3485 23.1573 27.1347Q23.1573 27.34 23.1333 27.5424Q23.0185 28.5138 22.3526 29.42Q21.4635 30.5615 19.6036 32.2931Q16.8083 34.8888 15.3374 37.0952ZM22.7911 29.7518Q21.8751 30.9295 19.9778 32.696Q17.2299 35.2476 15.7905 37.4067C14.9128 38.6833 14.4365 40.2884 14.3616 42.2218C14.3546 42.4022 14.3511 42.5855 14.3511 42.7716L25.997 42.7716Q25.997 41.677 26.399 40.7582Q26.6457 40.1943 27.0438 39.6966C27.7417 38.7806 28.8321 37.6902 30.3151 36.4253Q32.3434 34.6588 33.5865 33.2848C34.4588 32.3252 35.2003 31.1693 35.811 29.8172C36.4216 28.4214 36.7269 26.8294 36.7269 25.0411C36.7269 21.1591 35.1349 18.1495 31.9508 16.0122Q27.2401 12.7409 19.4544 12.7409Q12.5192 12.7409 7.61218 15.2925C4.51102 16.9051 2.07624 19.1253 0.30781 21.953C0.210771 22.1082 0.115739 22.2652 0.0227128 22.424L0.50747 22.6843L9.77125 27.6581Q10.7287 26.0304 12.1065 24.9282Q12.6117 24.524 13.1734 24.1905C14.6128 23.3618 16.2048 22.9474 17.9495 22.9474C19.6506 22.9474 21.0246 23.34 22.0714 24.1251C23.1619 24.8666 23.7071 25.8698 23.7071 27.1347Q23.7071 27.4232 23.6667 27.706Q23.5147 28.7697 22.7911 29.7518ZM16.0196 59.5955Q17.8199 60.594 20.174 60.594Q22.6702 60.594 24.5367 59.51Q25.2789 59.0788 25.9216 58.4763Q27.095 57.3395 27.6594 55.9546Q28.1825 54.6711 28.1825 53.1744Q28.1825 51.3967 27.4752 49.9693Q26.9142 48.8371 25.9082 47.9255Q25.3589 47.4276 24.7362 47.0513Q22.8073 45.8857 20.174 45.8857Q17.5583 45.8857 15.6341 47.0392Q14.9957 47.4218 14.4335 47.9314Q13.5186 48.7872 12.9838 49.8367Q12.231 51.3138 12.231 53.1744Q12.231 54.6565 12.7455 55.931Q13.311 57.3323 14.4985 58.4825Q15.2019 59.142 16.0196 59.5955ZM14.8745 58.0814C16.2703 59.3899 18.0368 60.0442 20.174 60.0442C22.3549 60.0442 24.1432 59.3899 25.539 58.0814Q26.6288 57.0257 27.1514 55.7394Q27.6327 54.5547 27.6327 53.1744C27.6327 51.2116 26.9348 49.5978 25.539 48.3329C24.1432 47.068 22.3549 46.4355 20.174 46.4355C17.9932 46.4355 16.2048 47.068 14.8091 48.3329C13.4569 49.5978 12.7809 51.2116 12.7809 53.1744Q12.7809 54.5547 13.2622 55.7394Q13.7847 57.0257 14.8745 58.0814Z" fill="rgb(32,32,39)" fill-rule="evenodd" transform="matrix(0.984808,0.173648,-0.174411,0.984673,336.008,-5.75208)" />
				</g>
				<g id="Frame 2043683101" customFrame="url(#clipPath_23)">
					<rect id="Frame 2043683101" width="114.411125" height="152.548172" x="0.000000" y="0.000000" rx="20.445749" fill="rgb(188,236,48)" transform="matrix(0.984808,0.173648,-0.174411,0.984673,425.679,-30.8361)" />
					<rect id="Frame 2043683101" width="113.729599" height="151.866653" x="0.340762" y="0.340762" rx="20.104986" stroke="rgb(32,32,39)" stroke-width="0.681524932" transform="matrix(0.984808,0.173648,-0.174411,0.984673,425.679,-30.8361)" />
					<path id="?" d="M11.4427 34.463C11.4427 32.7036 11.8298 31.2609 12.604 30.1348C13.3781 28.9736 14.5041 27.7068 15.9821 26.3345C17.0025 25.3844 17.7591 24.5926 18.2517 23.9592C18.7444 23.2907 18.9907 22.5869 18.9907 21.8479C18.9907 20.8275 18.5508 20.0181 17.6711 19.4199C16.8266 18.7865 15.7181 18.4698 14.3458 18.4698C12.9383 18.4698 11.6539 18.8041 10.4927 19.4727C9.36663 20.1413 8.45173 21.0738 7.74796 22.2702L-0.116671 18.0476C1.32606 15.5844 3.36699 13.6666 6.00613 12.2943C8.64526 10.9219 11.8298 10.2357 15.5598 10.2357C19.7472 10.2357 23.1077 11.1154 25.6413 12.8749C28.2101 14.5991 29.4944 17.0271 29.4944 20.1589C29.4944 21.6016 29.2481 22.886 28.7555 24.012C28.2628 25.1029 27.6646 26.0354 26.9609 26.8095C26.2923 27.5485 25.4126 28.393 24.3217 29.3431C23.1253 30.3636 22.2456 31.2433 21.6826 31.9822C21.1196 32.686 20.8381 33.5129 20.8381 34.463L11.4427 34.463ZM16.1404 48.3977C14.4162 48.3977 12.991 47.8698 11.865 46.8142C10.739 45.7233 10.176 44.4038 10.176 42.8555C10.176 41.272 10.7214 39.97 11.8122 38.9495C12.9383 37.9291 14.381 37.4188 16.1404 37.4188C17.8998 37.4188 19.3426 37.9291 20.4686 38.9495C21.5946 39.97 22.1576 41.272 22.1576 42.8555C22.1576 44.4038 21.5946 45.7233 20.4686 46.8142C19.3426 47.8698 17.8998 48.3977 16.1404 48.3977Z" fill="rgb(255,255,255)" fill-rule="nonzero" transform="matrix(0.984808,0.173648,-0.174411,0.984673,458.014,22.8687)" />
					<path id="?" d="M12.1509 29.8233Q10.8929 31.6531 10.8929 34.463L10.8929 35.0128L21.3879 35.0128L21.3879 34.463Q21.3879 33.676 21.6832 33.0224Q21.8503 32.6527 22.1119 32.3257L22.116 32.3207L22.1199 32.3154Q22.9288 31.2539 24.6828 29.7577Q26.3437 28.3111 27.3677 27.1794Q28.4818 25.9538 29.2592 24.2324Q30.0443 22.438 30.0443 20.1589Q30.0443 17.6736 29.0172 15.732Q28.9495 15.604 28.8774 15.4785Q27.8552 13.6987 25.9549 12.4233Q22.0131 9.68592 15.5598 9.68592Q9.83042 9.68592 5.75247 11.8065Q3.17471 13.1469 1.33051 15.1595Q0.241908 16.3475 -0.591101 17.7697L-0.87949 18.2621L7.95376 23.0048L8.22186 22.549Q8.97385 21.2706 10.0629 20.4278Q10.3989 20.1678 10.767 19.9492Q11.2567 19.6673 11.7785 19.4708Q12.9773 19.0197 14.3458 19.0197Q16.2211 19.0197 17.3412 19.8598L17.3514 19.8674L17.3619 19.8746Q17.9115 20.2483 18.1777 20.7381Q18.18 20.7424 18.1823 20.7467Q18.4409 21.2279 18.4409 21.8479Q18.4409 21.9978 18.4244 22.1458Q18.3392 22.9111 17.8132 23.6274Q17.1011 24.5413 15.6079 25.9316Q13.3436 28.0341 12.1509 29.8233ZM18.2517 23.9592C17.7591 24.5926 17.0025 25.3844 15.9821 26.3345Q13.7652 28.393 12.604 30.1348Q11.5661 31.6445 11.4558 33.9132Q11.4427 34.1827 11.4427 34.463L20.8381 34.463C20.8381 33.5129 21.1196 32.686 21.6826 31.9822C22.2456 31.2433 23.1253 30.3636 24.3217 29.3431C25.4126 28.393 26.2923 27.5485 26.9609 26.8095C27.6646 26.0354 28.2628 25.1029 28.7555 24.012C29.2481 22.886 29.4944 21.6016 29.4944 20.1589C29.4944 17.0271 28.2101 14.5991 25.6413 12.8749Q21.8409 10.2357 15.5598 10.2357Q9.96483 10.2357 6.00613 12.2943Q3.49853 13.5982 1.71101 15.5587Q0.858713 16.4935 0.170124 17.5775Q0.0229914 17.8091 -0.116671 18.0476L0.36809 18.3079L7.74796 22.2702C8.45173 21.0738 9.36663 20.1413 10.4927 19.4727C11.6539 18.8041 12.9383 18.4698 14.3458 18.4698C15.7181 18.4698 16.8266 18.7865 17.6711 19.4199C18.5508 20.0181 18.9907 20.8275 18.9907 21.8479C18.9907 22.5869 18.7444 23.2907 18.2517 23.9592ZM12.7487 48.1352Q14.2204 48.9475 16.1404 48.9475Q18.1717 48.9475 19.6961 48.0685Q20.3154 47.7113 20.8512 47.2091Q21.8139 46.2764 22.2774 45.14Q22.7075 44.0855 22.7075 42.8555Q22.7075 41.3977 22.1282 40.2265Q21.6668 39.2934 20.8378 38.5421Q20.3804 38.1276 19.8613 37.8158Q18.2852 36.869 16.1404 36.869Q14.0132 36.869 12.4418 37.8036Q11.907 38.1217 11.4366 38.548Q10.6818 39.2541 10.2417 40.1201Q9.62614 41.3313 9.62614 42.8555Q9.62614 44.0708 10.0475 45.1163Q10.5121 46.269 11.489 47.2153Q12.0714 47.7613 12.7487 48.1352ZM11.865 46.8142C12.991 47.8698 14.4162 48.3977 16.1404 48.3977C17.8998 48.3977 19.3426 47.8698 20.4686 46.8142C21.5946 45.7233 22.1576 44.4038 22.1576 42.8555C22.1576 41.272 21.5946 39.97 20.4686 38.9495C19.3426 37.9291 17.8998 37.4188 16.1404 37.4188C14.381 37.4188 12.9383 37.9291 11.8122 38.9495C10.7214 39.97 10.176 41.272 10.176 42.8555Q10.176 43.969 10.5642 44.9248Q10.9858 45.9624 11.865 46.8142Z" fill="rgb(32,32,39)" fill-rule="evenodd" transform="matrix(0.984808,0.173648,-0.174411,0.984673,458.014,22.8687)" />
				</g>
			</g>
			<g id="Frame 2043683113" customFrame="url(#clipPath_24)">
				<rect id="Frame 2043683113" width="599.037598" height="152.548111" x="0.000000" y="0.000000" transform="matrix(0.984808,0.173648,-0.173648,0.984808,-79.2202,41.7378)" />
				<g id="Frame 2043683104" customFrame="url(#clipPath_25)">
					<rect id="Frame 2043683104" width="114.411125" height="152.548172" x="0.000000" y="0.000000" rx="20.445749" fill="rgb(188,236,48)" transform="matrix(0.984808,0.173648,-0.174411,0.984673,-79.104,41.7582)" />
					<rect id="Frame 2043683104" width="113.729599" height="151.866653" x="0.340762" y="0.340762" rx="20.104986" stroke="rgb(32,32,39)" stroke-width="0.681524932" transform="matrix(0.984808,0.173648,-0.174411,0.984673,-79.104,41.7582)" />
					<path id="?" d="M11.4427 34.463C11.4427 32.7036 11.8298 31.2609 12.604 30.1348C13.3781 28.9736 14.5041 27.7068 15.9821 26.3345C17.0025 25.3844 17.7591 24.5926 18.2517 23.9592C18.7444 23.2907 18.9907 22.5869 18.9907 21.8479C18.9907 20.8275 18.5508 20.0181 17.6711 19.4199C16.8266 18.7865 15.7181 18.4698 14.3458 18.4698C12.9383 18.4698 11.6539 18.8041 10.4927 19.4727C9.36663 20.1413 8.45173 21.0738 7.74796 22.2702L-0.116671 18.0476C1.32606 15.5844 3.36699 13.6666 6.00613 12.2943C8.64526 10.9219 11.8298 10.2357 15.5598 10.2357C19.7472 10.2357 23.1077 11.1154 25.6413 12.8749C28.2101 14.5991 29.4944 17.0271 29.4944 20.1589C29.4944 21.6016 29.2481 22.886 28.7555 24.012C28.2628 25.1029 27.6646 26.0354 26.9609 26.8095C26.2923 27.5485 25.4126 28.393 24.3217 29.3431C23.1253 30.3636 22.2456 31.2433 21.6826 31.9822C21.1196 32.686 20.8381 33.5129 20.8381 34.463L11.4427 34.463ZM16.1404 48.3977C14.4162 48.3977 12.991 47.8698 11.865 46.8142C10.739 45.7233 10.176 44.4038 10.176 42.8555C10.176 41.272 10.7214 39.97 11.8122 38.9495C12.9383 37.9291 14.381 37.4188 16.1404 37.4188C17.8998 37.4188 19.3426 37.9291 20.4686 38.9495C21.5946 39.97 22.1576 41.272 22.1576 42.8555C22.1576 44.4038 21.5946 45.7233 20.4686 46.8142C19.3426 47.8698 17.8998 48.3977 16.1404 48.3977Z" fill="rgb(255,255,255)" fill-rule="nonzero" transform="matrix(0.984808,0.173648,-0.174411,0.984673,-46.7695,95.463)" />
					<path id="?" d="M12.1509 29.8233Q10.8929 31.6531 10.8929 34.463L10.8929 35.0128L21.3879 35.0128L21.3879 34.463Q21.3879 33.676 21.6832 33.0224Q21.8503 32.6527 22.1119 32.3257L22.116 32.3207L22.1199 32.3154Q22.9288 31.2539 24.6828 29.7577Q26.3437 28.3111 27.3677 27.1794Q28.4818 25.9538 29.2592 24.2324Q30.0443 22.438 30.0443 20.1589Q30.0443 17.6736 29.0172 15.732Q28.9495 15.604 28.8774 15.4785Q27.8552 13.6987 25.9549 12.4233Q22.0131 9.68592 15.5598 9.68592Q9.83042 9.68592 5.75247 11.8065Q3.17471 13.1469 1.33051 15.1595Q0.241908 16.3475 -0.591101 17.7697L-0.87949 18.2621L7.95376 23.0048L8.22186 22.549Q8.97385 21.2706 10.0629 20.4278Q10.3989 20.1678 10.767 19.9492Q11.2567 19.6673 11.7785 19.4708Q12.9773 19.0197 14.3458 19.0197Q16.2211 19.0197 17.3412 19.8598L17.3514 19.8674L17.3619 19.8746Q17.9115 20.2483 18.1777 20.7381Q18.18 20.7424 18.1823 20.7467Q18.4409 21.2279 18.4409 21.8479Q18.4409 21.9978 18.4244 22.1458Q18.3392 22.9111 17.8132 23.6274Q17.1011 24.5413 15.6079 25.9316Q13.3436 28.0341 12.1509 29.8233ZM18.2517 23.9592C17.7591 24.5926 17.0025 25.3844 15.9821 26.3345Q13.7652 28.393 12.604 30.1348Q11.5661 31.6445 11.4558 33.9132Q11.4427 34.1827 11.4427 34.463L20.8381 34.463C20.8381 33.5129 21.1196 32.686 21.6826 31.9822C22.2456 31.2433 23.1253 30.3636 24.3217 29.3431C25.4126 28.393 26.2923 27.5485 26.9609 26.8095C27.6646 26.0354 28.2628 25.1029 28.7555 24.012C29.2481 22.886 29.4944 21.6016 29.4944 20.1589C29.4944 17.0271 28.2101 14.5991 25.6413 12.8749Q21.8409 10.2357 15.5598 10.2357Q9.96483 10.2357 6.00613 12.2943Q3.49853 13.5982 1.71101 15.5587Q0.858713 16.4935 0.170124 17.5775Q0.0229914 17.8091 -0.116671 18.0476L0.36809 18.3079L7.74796 22.2702C8.45173 21.0738 9.36663 20.1413 10.4927 19.4727C11.6539 18.8041 12.9383 18.4698 14.3458 18.4698C15.7181 18.4698 16.8266 18.7865 17.6711 19.4199C18.5508 20.0181 18.9907 20.8275 18.9907 21.8479C18.9907 22.5869 18.7444 23.2907 18.2517 23.9592ZM12.7487 48.1352Q14.2204 48.9475 16.1404 48.9475Q18.1717 48.9475 19.6961 48.0685Q20.3154 47.7113 20.8512 47.2091Q21.8139 46.2764 22.2774 45.14Q22.7075 44.0855 22.7075 42.8555Q22.7075 41.3977 22.1282 40.2265Q21.6668 39.2934 20.8378 38.5421Q20.3804 38.1276 19.8613 37.8158Q18.2852 36.869 16.1404 36.869Q14.0132 36.869 12.4418 37.8036Q11.907 38.1217 11.4366 38.548Q10.6818 39.2541 10.2417 40.1201Q9.62614 41.3313 9.62614 42.8555Q9.62614 44.0708 10.0475 45.1163Q10.5121 46.269 11.489 47.2153Q12.0714 47.7613 12.7487 48.1352ZM11.865 46.8142C12.991 47.8698 14.4162 48.3977 16.1404 48.3977C17.8998 48.3977 19.3426 47.8698 20.4686 46.8142C21.5946 45.7233 22.1576 44.4038 22.1576 42.8555C22.1576 41.272 21.5946 39.97 20.4686 38.9495C19.3426 37.9291 17.8998 37.4188 16.1404 37.4188C14.381 37.4188 12.9383 37.9291 11.8122 38.9495C10.7214 39.97 10.176 41.272 10.176 42.8555Q10.176 43.969 10.5642 44.9248Q10.9858 45.9624 11.865 46.8142Z" fill="rgb(32,32,39)" fill-rule="evenodd" transform="matrix(0.984808,0.173648,-0.174411,0.984673,-46.7695,95.463)" />
				</g>
				<g id="Frame 2043683096" customFrame="url(#clipPath_26)">
					<rect id="Frame 2043683096" width="114.411125" height="152.548172" x="0.000000" y="0.000000" rx="20.445749" fill="rgb(188,236,48)" transform="matrix(0.984808,0.173648,-0.174411,0.984673,40.1833,62.7917)" />
					<rect id="Frame 2043683096" width="113.729599" height="151.866653" x="0.340762" y="0.340762" rx="20.104986" stroke="rgb(32,32,39)" stroke-width="0.681524932" transform="matrix(0.984808,0.173648,-0.174411,0.984673,40.1833,62.7917)" />
					<path id="?" d="M14.3511 42.7716C14.3511 40.5908 14.8309 38.8024 15.7905 37.4067C16.7501 35.9673 18.1458 34.3971 19.9778 32.696C21.2427 31.5183 22.1805 30.5369 22.7911 29.7518C23.4017 28.923 23.7071 28.0507 23.7071 27.1347C23.7071 25.8698 23.1619 24.8666 22.0714 24.1251C21.0246 23.34 19.6506 22.9474 17.9495 22.9474C16.2048 22.9474 14.6128 23.3618 13.1734 24.1905C11.7777 25.0193 10.6436 26.1751 9.77125 27.6581L0.0227128 22.424C1.81103 19.3708 4.34086 16.9936 7.61218 15.2925C10.8835 13.5915 14.8309 12.7409 19.4544 12.7409C24.6448 12.7409 28.8103 13.8314 31.9508 16.0122C35.1349 18.1495 36.7269 21.1591 36.7269 25.0411C36.7269 26.8294 36.4216 28.4214 35.811 29.8172C35.2003 31.1693 34.4588 32.3252 33.5865 33.2848C32.7577 34.2008 31.6673 35.2476 30.3151 36.4253C28.8321 37.6902 27.7417 38.7806 27.0438 39.6966C26.3459 40.5689 25.997 41.594 25.997 42.7716L14.3511 42.7716ZM20.174 60.0442C18.0368 60.0442 16.2703 59.3899 14.8745 58.0814C13.4787 56.7293 12.7809 55.0936 12.7809 53.1744C12.7809 51.2116 13.4569 49.5978 14.8091 48.3329C16.2048 47.068 17.9932 46.4355 20.174 46.4355C22.3549 46.4355 24.1432 47.068 25.539 48.3329C26.9348 49.5978 27.6327 51.2116 27.6327 53.1744C27.6327 55.0936 26.9348 56.7293 25.539 58.0814C24.1432 59.3899 22.3549 60.0442 20.174 60.0442Z" fill="rgb(255,255,255)" fill-rule="nonzero" transform="matrix(0.984808,0.173648,-0.174411,0.984673,69.7993,108.909)" />
					<path id="?" d="M15.3374 37.0952Q13.8013 39.3295 13.8013 42.7716L13.8013 43.3214L26.5468 43.3214L26.5468 42.7716Q26.5468 41.7731 26.9198 40.9419Q27.1346 40.4632 27.4732 40.0401L27.4771 40.0351L27.4812 40.0298Q28.4923 38.7027 30.6762 36.8399Q32.7291 35.0519 33.9933 33.6547Q35.3603 32.151 36.3147 30.0376Q37.2767 27.8386 37.2767 25.0411Q37.2767 21.9931 36.0189 19.6153Q35.945 19.4756 35.8669 19.3384Q34.6137 17.1375 32.2644 15.5606Q27.4123 12.1911 19.4544 12.1911Q12.3847 12.1911 7.35852 14.8047Q4.18006 16.4575 1.90765 18.9398Q0.571295 20.3995 -0.451718 22.1461L-0.740107 22.6385L9.97705 28.3927L10.2452 27.9369Q11.1822 26.344 12.5375 25.2879Q12.9712 24.95 13.4478 24.667Q14.0697 24.3089 14.7327 24.0605Q16.2356 23.4973 17.9495 23.4973Q20.3179 23.4973 21.7415 24.565L21.7517 24.5726L21.7622 24.5798Q22.4698 25.0609 22.8151 25.6962Q22.8247 25.7139 22.834 25.7317Q23.1573 26.3485 23.1573 27.1347Q23.1573 27.34 23.1333 27.5424Q23.0185 28.5138 22.3526 29.42Q21.4635 30.5615 19.6036 32.2931Q16.8083 34.8888 15.3374 37.0952ZM22.7911 29.7518Q21.8751 30.9295 19.9778 32.696Q17.2299 35.2476 15.7905 37.4067C14.9128 38.6833 14.4365 40.2884 14.3616 42.2218C14.3546 42.4022 14.3511 42.5855 14.3511 42.7716L25.997 42.7716Q25.997 41.677 26.399 40.7582Q26.6457 40.1943 27.0438 39.6966C27.7417 38.7806 28.8321 37.6902 30.3151 36.4253Q32.3434 34.6588 33.5865 33.2848C34.4588 32.3252 35.2003 31.1693 35.811 29.8172C36.4216 28.4214 36.7269 26.8294 36.7269 25.0411C36.7269 21.1591 35.1349 18.1495 31.9508 16.0122Q27.2401 12.7409 19.4544 12.7409Q12.5192 12.7409 7.61218 15.2925C4.51102 16.9051 2.07624 19.1253 0.30781 21.953C0.210771 22.1082 0.115739 22.2652 0.0227128 22.424L0.50747 22.6843L9.77125 27.6581Q10.7287 26.0304 12.1065 24.9282Q12.6117 24.524 13.1734 24.1905C14.6128 23.3618 16.2048 22.9474 17.9495 22.9474C19.6506 22.9474 21.0246 23.34 22.0714 24.1251C23.1619 24.8666 23.7071 25.8698 23.7071 27.1347Q23.7071 27.4232 23.6667 27.706Q23.5147 28.7697 22.7911 29.7518ZM16.0196 59.5955Q17.8199 60.594 20.174 60.594Q22.6702 60.594 24.5367 59.51Q25.2789 59.0788 25.9216 58.4763Q27.095 57.3395 27.6594 55.9546Q28.1825 54.6711 28.1825 53.1744Q28.1825 51.3967 27.4752 49.9693Q26.9142 48.8371 25.9082 47.9255Q25.3589 47.4276 24.7362 47.0513Q22.8073 45.8857 20.174 45.8857Q17.5583 45.8857 15.6341 47.0392Q14.9957 47.4218 14.4335 47.9314Q13.5186 48.7872 12.9838 49.8367Q12.231 51.3138 12.231 53.1744Q12.231 54.6565 12.7455 55.931Q13.311 57.3323 14.4985 58.4825Q15.2019 59.142 16.0196 59.5955ZM14.8745 58.0814C16.2703 59.3899 18.0368 60.0442 20.174 60.0442C22.3549 60.0442 24.1432 59.3899 25.539 58.0814Q26.6288 57.0257 27.1514 55.7394Q27.6327 54.5547 27.6327 53.1744C27.6327 51.2116 26.9348 49.5978 25.539 48.3329C24.1432 47.068 22.3549 46.4355 20.174 46.4355C17.9932 46.4355 16.2048 47.068 14.8091 48.3329C13.4569 49.5978 12.7809 51.2116 12.7809 53.1744Q12.7809 54.5547 13.2622 55.7394Q13.7847 57.0257 14.8745 58.0814Z" fill="rgb(32,32,39)" fill-rule="evenodd" transform="matrix(0.984808,0.173648,-0.174411,0.984673,69.7993,108.909)" />
				</g>
				<g id="Frame 2043683112" customFrame="url(#clipPath_27)">
					<rect id="Frame 2043683112" width="114.411125" height="152.548172" x="0.000000" y="0.000000" rx="20.445749" fill="rgb(188,236,48)" transform="matrix(0.984808,0.173648,-0.174411,0.984673,159.47,83.8252)" />
					<rect id="Frame 2043683112" width="113.729599" height="151.866653" x="0.340762" y="0.340762" rx="20.104986" stroke="rgb(32,32,39)" stroke-width="0.681524932" transform="matrix(0.984808,0.173648,-0.174411,0.984673,159.47,83.8252)" />
					<path id="?" d="M11.4427 34.463C11.4427 32.7036 11.8298 31.2609 12.604 30.1348C13.3781 28.9736 14.5041 27.7068 15.9821 26.3345C17.0025 25.3844 17.7591 24.5926 18.2517 23.9592C18.7444 23.2907 18.9907 22.5869 18.9907 21.8479C18.9907 20.8275 18.5508 20.0181 17.6711 19.4199C16.8266 18.7865 15.7181 18.4698 14.3458 18.4698C12.9383 18.4698 11.6539 18.8041 10.4927 19.4727C9.36663 20.1413 8.45173 21.0738 7.74796 22.2702L-0.116671 18.0476C1.32606 15.5844 3.36699 13.6666 6.00613 12.2943C8.64526 10.9219 11.8298 10.2357 15.5598 10.2357C19.7472 10.2357 23.1077 11.1154 25.6413 12.8749C28.2101 14.5991 29.4944 17.0271 29.4944 20.1589C29.4944 21.6016 29.2481 22.886 28.7555 24.012C28.2628 25.1029 27.6646 26.0354 26.9609 26.8095C26.2923 27.5485 25.4126 28.393 24.3217 29.3431C23.1253 30.3636 22.2456 31.2433 21.6826 31.9822C21.1196 32.686 20.8381 33.5129 20.8381 34.463L11.4427 34.463ZM16.1404 48.3977C14.4162 48.3977 12.991 47.8698 11.865 46.8142C10.739 45.7233 10.176 44.4038 10.176 42.8555C10.176 41.272 10.7214 39.97 11.8122 38.9495C12.9383 37.9291 14.381 37.4188 16.1404 37.4188C17.8998 37.4188 19.3426 37.9291 20.4686 38.9495C21.5946 39.97 22.1576 41.272 22.1576 42.8555C22.1576 44.4038 21.5946 45.7233 20.4686 46.8142C19.3426 47.8698 17.8998 48.3977 16.1404 48.3977Z" fill="rgb(255,255,255)" fill-rule="nonzero" transform="matrix(0.984808,0.173648,-0.174411,0.984673,191.804,137.53)" />
					<path id="?" d="M12.1509 29.8233Q10.8929 31.6531 10.8929 34.463L10.8929 35.0128L21.3879 35.0128L21.3879 34.463Q21.3879 33.676 21.6832 33.0224Q21.8503 32.6527 22.1119 32.3257L22.116 32.3207L22.1199 32.3154Q22.9288 31.2539 24.6828 29.7577Q26.3437 28.3111 27.3677 27.1794Q28.4818 25.9538 29.2592 24.2324Q30.0443 22.438 30.0443 20.1589Q30.0443 17.6736 29.0172 15.732Q28.9495 15.604 28.8774 15.4785Q27.8552 13.6987 25.9549 12.4233Q22.0131 9.68592 15.5598 9.68592Q9.83042 9.68592 5.75247 11.8065Q3.17471 13.1469 1.33051 15.1595Q0.241908 16.3475 -0.591101 17.7697L-0.87949 18.2621L7.95376 23.0048L8.22186 22.549Q8.97385 21.2706 10.0629 20.4278Q10.3989 20.1678 10.767 19.9492Q11.2567 19.6673 11.7785 19.4708Q12.9773 19.0197 14.3458 19.0197Q16.2211 19.0197 17.3412 19.8598L17.3514 19.8674L17.3619 19.8746Q17.9115 20.2483 18.1777 20.7381Q18.18 20.7424 18.1823 20.7467Q18.4409 21.2279 18.4409 21.8479Q18.4409 21.9978 18.4244 22.1458Q18.3392 22.9111 17.8132 23.6274Q17.1011 24.5413 15.6079 25.9316Q13.3436 28.0341 12.1509 29.8233ZM18.2517 23.9592C17.7591 24.5926 17.0025 25.3844 15.9821 26.3345Q13.7652 28.393 12.604 30.1348Q11.5661 31.6445 11.4558 33.9132Q11.4427 34.1827 11.4427 34.463L20.8381 34.463C20.8381 33.5129 21.1196 32.686 21.6826 31.9822C22.2456 31.2433 23.1253 30.3636 24.3217 29.3431C25.4126 28.393 26.2923 27.5485 26.9609 26.8095C27.6646 26.0354 28.2628 25.1029 28.7555 24.012C29.2481 22.886 29.4944 21.6016 29.4944 20.1589C29.4944 17.0271 28.2101 14.5991 25.6413 12.8749Q21.8409 10.2357 15.5598 10.2357Q9.96483 10.2357 6.00613 12.2943Q3.49853 13.5982 1.71101 15.5587Q0.858713 16.4935 0.170124 17.5775Q0.0229914 17.8091 -0.116671 18.0476L0.36809 18.3079L7.74796 22.2702C8.45173 21.0738 9.36663 20.1413 10.4927 19.4727C11.6539 18.8041 12.9383 18.4698 14.3458 18.4698C15.7181 18.4698 16.8266 18.7865 17.6711 19.4199C18.5508 20.0181 18.9907 20.8275 18.9907 21.8479C18.9907 22.5869 18.7444 23.2907 18.2517 23.9592ZM12.7487 48.1352Q14.2204 48.9475 16.1404 48.9475Q18.1717 48.9475 19.6961 48.0685Q20.3154 47.7113 20.8512 47.2091Q21.8139 46.2764 22.2774 45.14Q22.7075 44.0855 22.7075 42.8555Q22.7075 41.3977 22.1282 40.2265Q21.6668 39.2934 20.8378 38.5421Q20.3804 38.1276 19.8613 37.8158Q18.2852 36.869 16.1404 36.869Q14.0132 36.869 12.4418 37.8036Q11.907 38.1217 11.4366 38.548Q10.6818 39.2541 10.2417 40.1201Q9.62614 41.3313 9.62614 42.8555Q9.62614 44.0708 10.0475 45.1163Q10.5121 46.269 11.489 47.2153Q12.0714 47.7613 12.7487 48.1352ZM11.865 46.8142C12.991 47.8698 14.4162 48.3977 16.1404 48.3977C17.8998 48.3977 19.3426 47.8698 20.4686 46.8142C21.5946 45.7233 22.1576 44.4038 22.1576 42.8555C22.1576 41.272 21.5946 39.97 20.4686 38.9495C19.3426 37.9291 17.8998 37.4188 16.1404 37.4188C14.381 37.4188 12.9383 37.9291 11.8122 38.9495C10.7214 39.97 10.176 41.272 10.176 42.8555Q10.176 43.969 10.5642 44.9248Q10.9858 45.9624 11.865 46.8142Z" fill="rgb(32,32,39)" fill-rule="evenodd" transform="matrix(0.984808,0.173648,-0.174411,0.984673,191.804,137.53)" />
				</g>
				<g id="Frame 2043683098" customFrame="url(#clipPath_28)">
					<rect id="Frame 2043683098" width="114.411125" height="152.548172" x="0.000000" y="0.000000" rx="20.445749" fill="rgb(188,236,48)" transform="matrix(0.984808,0.173648,-0.174411,0.984673,278.757,104.859)" />
					<rect id="Frame 2043683098" width="113.729599" height="151.866653" x="0.340762" y="0.340762" rx="20.104986" stroke="rgb(32,32,39)" stroke-width="0.681524932" transform="matrix(0.984808,0.173648,-0.174411,0.984673,278.757,104.859)" />
					<path id="?" d="M14.3511 42.7716C14.3511 40.5908 14.8309 38.8024 15.7905 37.4067C16.7501 35.9673 18.1458 34.3971 19.9778 32.696C21.2427 31.5183 22.1805 30.5369 22.7911 29.7518C23.4017 28.923 23.7071 28.0507 23.7071 27.1347C23.7071 25.8698 23.1619 24.8666 22.0714 24.1251C21.0246 23.34 19.6506 22.9474 17.9495 22.9474C16.2048 22.9474 14.6128 23.3618 13.1734 24.1905C11.7777 25.0193 10.6436 26.1751 9.77125 27.6581L0.0227128 22.424C1.81103 19.3708 4.34086 16.9936 7.61218 15.2925C10.8835 13.5915 14.8309 12.7409 19.4544 12.7409C24.6448 12.7409 28.8103 13.8314 31.9508 16.0122C35.1349 18.1495 36.7269 21.1591 36.7269 25.0411C36.7269 26.8294 36.4216 28.4214 35.811 29.8172C35.2003 31.1693 34.4588 32.3252 33.5865 33.2848C32.7577 34.2008 31.6673 35.2476 30.3151 36.4253C28.8321 37.6902 27.7417 38.7806 27.0438 39.6966C26.3459 40.5689 25.997 41.594 25.997 42.7716L14.3511 42.7716ZM20.174 60.0442C18.0368 60.0442 16.2703 59.3899 14.8745 58.0814C13.4787 56.7293 12.7809 55.0936 12.7809 53.1744C12.7809 51.2116 13.4569 49.5978 14.8091 48.3329C16.2048 47.068 17.9932 46.4355 20.174 46.4355C22.3549 46.4355 24.1432 47.068 25.539 48.3329C26.9348 49.5978 27.6327 51.2116 27.6327 53.1744C27.6327 55.0936 26.9348 56.7293 25.539 58.0814C24.1432 59.3899 22.3549 60.0442 20.174 60.0442Z" fill="rgb(255,255,255)" fill-rule="nonzero" transform="matrix(0.984808,0.173648,-0.174411,0.984673,308.373,150.976)" />
					<path id="?" d="M15.3374 37.0952Q13.8013 39.3295 13.8013 42.7716L13.8013 43.3214L26.5468 43.3214L26.5468 42.7716Q26.5468 41.7731 26.9198 40.9419Q27.1346 40.4632 27.4732 40.0401L27.4771 40.0351L27.4812 40.0298Q28.4923 38.7027 30.6762 36.8399Q32.7291 35.0519 33.9933 33.6547Q35.3603 32.151 36.3147 30.0376Q37.2767 27.8386 37.2767 25.0411Q37.2767 21.9931 36.0189 19.6153Q35.945 19.4756 35.8669 19.3384Q34.6137 17.1375 32.2644 15.5606Q27.4123 12.1911 19.4544 12.1911Q12.3847 12.1911 7.35852 14.8047Q4.18006 16.4575 1.90765 18.9398Q0.571295 20.3995 -0.451718 22.1461L-0.740107 22.6385L9.97705 28.3927L10.2452 27.9369Q11.1822 26.344 12.5375 25.2879Q12.9712 24.95 13.4478 24.667Q14.0697 24.3089 14.7327 24.0605Q16.2356 23.4973 17.9495 23.4973Q20.3179 23.4973 21.7415 24.565L21.7517 24.5726L21.7622 24.5798Q22.4698 25.0609 22.8151 25.6962Q22.8247 25.7139 22.834 25.7317Q23.1573 26.3485 23.1573 27.1347Q23.1573 27.34 23.1333 27.5424Q23.0185 28.5138 22.3526 29.42Q21.4635 30.5615 19.6036 32.2931Q16.8083 34.8888 15.3374 37.0952ZM22.7911 29.7518Q21.8751 30.9295 19.9778 32.696Q17.2299 35.2476 15.7905 37.4067C14.9128 38.6833 14.4365 40.2884 14.3616 42.2218C14.3546 42.4022 14.3511 42.5855 14.3511 42.7716L25.997 42.7716Q25.997 41.677 26.399 40.7582Q26.6457 40.1943 27.0438 39.6966C27.7417 38.7806 28.8321 37.6902 30.3151 36.4253Q32.3434 34.6588 33.5865 33.2848C34.4588 32.3252 35.2003 31.1693 35.811 29.8172C36.4216 28.4214 36.7269 26.8294 36.7269 25.0411C36.7269 21.1591 35.1349 18.1495 31.9508 16.0122Q27.2401 12.7409 19.4544 12.7409Q12.5192 12.7409 7.61218 15.2925C4.51102 16.9051 2.07624 19.1253 0.30781 21.953C0.210771 22.1082 0.115739 22.2652 0.0227128 22.424L0.50747 22.6843L9.77125 27.6581Q10.7287 26.0304 12.1065 24.9282Q12.6117 24.524 13.1734 24.1905C14.6128 23.3618 16.2048 22.9474 17.9495 22.9474C19.6506 22.9474 21.0246 23.34 22.0714 24.1251C23.1619 24.8666 23.7071 25.8698 23.7071 27.1347Q23.7071 27.4232 23.6667 27.706Q23.5147 28.7697 22.7911 29.7518ZM16.0196 59.5955Q17.8199 60.594 20.174 60.594Q22.6702 60.594 24.5367 59.51Q25.2789 59.0788 25.9216 58.4763Q27.095 57.3395 27.6594 55.9546Q28.1825 54.6711 28.1825 53.1744Q28.1825 51.3967 27.4752 49.9693Q26.9142 48.8371 25.9082 47.9255Q25.3589 47.4276 24.7362 47.0513Q22.8073 45.8857 20.174 45.8857Q17.5583 45.8857 15.6341 47.0392Q14.9957 47.4218 14.4335 47.9314Q13.5186 48.7872 12.9838 49.8367Q12.231 51.3138 12.231 53.1744Q12.231 54.6565 12.7455 55.931Q13.311 57.3323 14.4985 58.4825Q15.2019 59.142 16.0196 59.5955ZM14.8745 58.0814C16.2703 59.3899 18.0368 60.0442 20.174 60.0442C22.3549 60.0442 24.1432 59.3899 25.539 58.0814Q26.6288 57.0257 27.1514 55.7394Q27.6327 54.5547 27.6327 53.1744C27.6327 51.2116 26.9348 49.5978 25.539 48.3329C24.1432 47.068 22.3549 46.4355 20.174 46.4355C17.9932 46.4355 16.2048 47.068 14.8091 48.3329C13.4569 49.5978 12.7809 51.2116 12.7809 53.1744Q12.7809 54.5547 13.2622 55.7394Q13.7847 57.0257 14.8745 58.0814Z" fill="rgb(32,32,39)" fill-rule="evenodd" transform="matrix(0.984808,0.173648,-0.174411,0.984673,308.373,150.976)" />
				</g>
				<g id="Frame 2043683102" customFrame="url(#clipPath_29)">
					<rect id="Frame 2043683102" width="114.411125" height="152.548172" x="0.000000" y="0.000000" rx="20.445749" fill="rgb(188,236,48)" transform="matrix(0.984808,0.173648,-0.174411,0.984673,398.044,125.892)" />
					<rect id="Frame 2043683102" width="113.729599" height="151.866653" x="0.340762" y="0.340762" rx="20.104986" stroke="rgb(32,32,39)" stroke-width="0.681524932" transform="matrix(0.984808,0.173648,-0.174411,0.984673,398.044,125.892)" />
					<path id="?" d="M11.4427 34.463C11.4427 32.7036 11.8298 31.2609 12.604 30.1348C13.3781 28.9736 14.5041 27.7068 15.9821 26.3345C17.0025 25.3844 17.7591 24.5926 18.2517 23.9592C18.7444 23.2907 18.9907 22.5869 18.9907 21.8479C18.9907 20.8275 18.5508 20.0181 17.6711 19.4199C16.8266 18.7865 15.7181 18.4698 14.3458 18.4698C12.9383 18.4698 11.6539 18.8041 10.4927 19.4727C9.36663 20.1413 8.45173 21.0738 7.74796 22.2702L-0.116671 18.0476C1.32606 15.5844 3.36699 13.6666 6.00613 12.2943C8.64526 10.9219 11.8298 10.2357 15.5598 10.2357C19.7472 10.2357 23.1077 11.1154 25.6413 12.8749C28.2101 14.5991 29.4944 17.0271 29.4944 20.1589C29.4944 21.6016 29.2481 22.886 28.7555 24.012C28.2628 25.1029 27.6646 26.0354 26.9609 26.8095C26.2923 27.5485 25.4126 28.393 24.3217 29.3431C23.1253 30.3636 22.2456 31.2433 21.6826 31.9822C21.1196 32.686 20.8381 33.5129 20.8381 34.463L11.4427 34.463ZM16.1404 48.3977C14.4162 48.3977 12.991 47.8698 11.865 46.8142C10.739 45.7233 10.176 44.4038 10.176 42.8555C10.176 41.272 10.7214 39.97 11.8122 38.9495C12.9383 37.9291 14.381 37.4188 16.1404 37.4188C17.8998 37.4188 19.3426 37.9291 20.4686 38.9495C21.5946 39.97 22.1576 41.272 22.1576 42.8555C22.1576 44.4038 21.5946 45.7233 20.4686 46.8142C19.3426 47.8698 17.8998 48.3977 16.1404 48.3977Z" fill="rgb(255,255,255)" fill-rule="nonzero" transform="matrix(0.984808,0.173648,-0.174411,0.984673,430.378,179.597)" />
					<path id="?" d="M12.1509 29.8233Q10.8929 31.6531 10.8929 34.463L10.8929 35.0128L21.3879 35.0128L21.3879 34.463Q21.3879 33.676 21.6832 33.0224Q21.8503 32.6527 22.1119 32.3257L22.116 32.3207L22.1199 32.3154Q22.9288 31.2539 24.6828 29.7577Q26.3437 28.3111 27.3677 27.1794Q28.4818 25.9538 29.2592 24.2324Q30.0443 22.438 30.0443 20.1589Q30.0443 17.6736 29.0172 15.732Q28.9495 15.604 28.8774 15.4785Q27.8552 13.6987 25.9549 12.4233Q22.0131 9.68592 15.5598 9.68592Q9.83042 9.68592 5.75247 11.8065Q3.17471 13.1469 1.33051 15.1595Q0.241908 16.3475 -0.591101 17.7697L-0.87949 18.2621L7.95376 23.0048L8.22186 22.549Q8.97385 21.2706 10.0629 20.4278Q10.3989 20.1678 10.767 19.9492Q11.2567 19.6673 11.7785 19.4708Q12.9773 19.0197 14.3458 19.0197Q16.2211 19.0197 17.3412 19.8598L17.3514 19.8674L17.3619 19.8746Q17.9115 20.2483 18.1777 20.7381Q18.18 20.7424 18.1823 20.7467Q18.4409 21.2279 18.4409 21.8479Q18.4409 21.9978 18.4244 22.1458Q18.3392 22.9111 17.8132 23.6274Q17.1011 24.5413 15.6079 25.9316Q13.3436 28.0341 12.1509 29.8233ZM18.2517 23.9592C17.7591 24.5926 17.0025 25.3844 15.9821 26.3345Q13.7652 28.393 12.604 30.1348Q11.5661 31.6445 11.4558 33.9132Q11.4427 34.1827 11.4427 34.463L20.8381 34.463C20.8381 33.5129 21.1196 32.686 21.6826 31.9822C22.2456 31.2433 23.1253 30.3636 24.3217 29.3431C25.4126 28.393 26.2923 27.5485 26.9609 26.8095C27.6646 26.0354 28.2628 25.1029 28.7555 24.012C29.2481 22.886 29.4944 21.6016 29.4944 20.1589C29.4944 17.0271 28.2101 14.5991 25.6413 12.8749Q21.8409 10.2357 15.5598 10.2357Q9.96483 10.2357 6.00613 12.2943Q3.49853 13.5982 1.71101 15.5587Q0.858713 16.4935 0.170124 17.5775Q0.0229914 17.8091 -0.116671 18.0476L0.36809 18.3079L7.74796 22.2702C8.45173 21.0738 9.36663 20.1413 10.4927 19.4727C11.6539 18.8041 12.9383 18.4698 14.3458 18.4698C15.7181 18.4698 16.8266 18.7865 17.6711 19.4199C18.5508 20.0181 18.9907 20.8275 18.9907 21.8479C18.9907 22.5869 18.7444 23.2907 18.2517 23.9592ZM12.7487 48.1352Q14.2204 48.9475 16.1404 48.9475Q18.1717 48.9475 19.6961 48.0685Q20.3154 47.7113 20.8512 47.2091Q21.8139 46.2764 22.2774 45.14Q22.7075 44.0855 22.7075 42.8555Q22.7075 41.3977 22.1282 40.2265Q21.6668 39.2934 20.8378 38.5421Q20.3804 38.1276 19.8613 37.8158Q18.2852 36.869 16.1404 36.869Q14.0132 36.869 12.4418 37.8036Q11.907 38.1217 11.4366 38.548Q10.6818 39.2541 10.2417 40.1201Q9.62614 41.3313 9.62614 42.8555Q9.62614 44.0708 10.0475 45.1163Q10.5121 46.269 11.489 47.2153Q12.0714 47.7613 12.7487 48.1352ZM11.865 46.8142C12.991 47.8698 14.4162 48.3977 16.1404 48.3977C17.8998 48.3977 19.3426 47.8698 20.4686 46.8142C21.5946 45.7233 22.1576 44.4038 22.1576 42.8555C22.1576 41.272 21.5946 39.97 20.4686 38.9495C19.3426 37.9291 17.8998 37.4188 16.1404 37.4188C14.381 37.4188 12.9383 37.9291 11.8122 38.9495C10.7214 39.97 10.176 41.272 10.176 42.8555Q10.176 43.969 10.5642 44.9248Q10.9858 45.9624 11.865 46.8142Z" fill="rgb(32,32,39)" fill-rule="evenodd" transform="matrix(0.984808,0.173648,-0.174411,0.984673,430.378,179.597)" />
				</g>
			</g>
			<g id="Frame 2043683110" customFrame="url(#clipPath_30)">
				<rect id="Frame 2043683110" width="599.037598" height="152.548111" x="0.000000" y="0.000000" transform="matrix(0.984808,0.173648,-0.173648,0.984808,-106.855,198.466)" />
				<g id="Frame 2043683109" customFrame="url(#clipPath_31)">
					<rect id="Frame 2043683109" width="114.411125" height="152.548172" x="0.000000" y="0.000000" rx="20.445749" fill="rgb(188,236,48)" transform="matrix(0.984808,0.173648,-0.174411,0.984673,-106.739,198.486)" />
					<rect id="Frame 2043683109" width="113.729599" height="151.866653" x="0.340762" y="0.340762" rx="20.104986" stroke="rgb(32,32,39)" stroke-width="0.681524932" transform="matrix(0.984808,0.173648,-0.174411,0.984673,-106.739,198.486)" />
					<path id="?" d="M11.4427 34.463C11.4427 32.7036 11.8298 31.2609 12.604 30.1348C13.3781 28.9736 14.5041 27.7068 15.9821 26.3345C17.0025 25.3844 17.7591 24.5926 18.2517 23.9592C18.7444 23.2907 18.9907 22.5869 18.9907 21.8479C18.9907 20.8275 18.5508 20.0181 17.6711 19.4199C16.8266 18.7865 15.7181 18.4698 14.3458 18.4698C12.9383 18.4698 11.6539 18.8041 10.4927 19.4727C9.36663 20.1413 8.45173 21.0738 7.74796 22.2702L-0.116671 18.0476C1.32606 15.5844 3.36699 13.6666 6.00613 12.2943C8.64526 10.9219 11.8298 10.2357 15.5598 10.2357C19.7472 10.2357 23.1077 11.1154 25.6413 12.8749C28.2101 14.5991 29.4944 17.0271 29.4944 20.1589C29.4944 21.6016 29.2481 22.886 28.7555 24.012C28.2628 25.1029 27.6646 26.0354 26.9609 26.8095C26.2923 27.5485 25.4126 28.393 24.3217 29.3431C23.1253 30.3636 22.2456 31.2433 21.6826 31.9822C21.1196 32.686 20.8381 33.5129 20.8381 34.463L11.4427 34.463ZM16.1404 48.3977C14.4162 48.3977 12.991 47.8698 11.865 46.8142C10.739 45.7233 10.176 44.4038 10.176 42.8555C10.176 41.272 10.7214 39.97 11.8122 38.9495C12.9383 37.9291 14.381 37.4188 16.1404 37.4188C17.8998 37.4188 19.3426 37.9291 20.4686 38.9495C21.5946 39.97 22.1576 41.272 22.1576 42.8555C22.1576 44.4038 21.5946 45.7233 20.4686 46.8142C19.3426 47.8698 17.8998 48.3977 16.1404 48.3977Z" fill="rgb(255,255,255)" fill-rule="nonzero" transform="matrix(0.984808,0.173648,-0.174411,0.984673,-74.4048,252.191)" />
					<path id="?" d="M12.1509 29.8233Q10.8929 31.6531 10.8929 34.463L10.8929 35.0128L21.3879 35.0128L21.3879 34.463Q21.3879 33.676 21.6832 33.0224Q21.8503 32.6527 22.1119 32.3257L22.116 32.3207L22.1199 32.3154Q22.9288 31.2539 24.6828 29.7577Q26.3437 28.3111 27.3677 27.1794Q28.4818 25.9538 29.2592 24.2324Q30.0443 22.438 30.0443 20.1589Q30.0443 17.6736 29.0172 15.732Q28.9495 15.604 28.8774 15.4785Q27.8552 13.6987 25.9549 12.4233Q22.0131 9.68592 15.5598 9.68592Q9.83042 9.68592 5.75247 11.8065Q3.17471 13.1469 1.33051 15.1595Q0.241908 16.3475 -0.591101 17.7697L-0.87949 18.2621L7.95376 23.0048L8.22186 22.549Q8.97385 21.2706 10.0629 20.4278Q10.3989 20.1678 10.767 19.9492Q11.2567 19.6673 11.7785 19.4708Q12.9773 19.0197 14.3458 19.0197Q16.2211 19.0197 17.3412 19.8598L17.3514 19.8674L17.3619 19.8746Q17.9115 20.2483 18.1777 20.7381Q18.18 20.7424 18.1823 20.7467Q18.4409 21.2279 18.4409 21.8479Q18.4409 21.9978 18.4244 22.1458Q18.3392 22.9111 17.8132 23.6274Q17.1011 24.5413 15.6079 25.9316Q13.3436 28.0341 12.1509 29.8233ZM18.2517 23.9592C17.7591 24.5926 17.0025 25.3844 15.9821 26.3345Q13.7652 28.393 12.604 30.1348Q11.5661 31.6445 11.4558 33.9132Q11.4427 34.1827 11.4427 34.463L20.8381 34.463C20.8381 33.5129 21.1196 32.686 21.6826 31.9822C22.2456 31.2433 23.1253 30.3636 24.3217 29.3431C25.4126 28.393 26.2923 27.5485 26.9609 26.8095C27.6646 26.0354 28.2628 25.1029 28.7555 24.012C29.2481 22.886 29.4944 21.6016 29.4944 20.1589C29.4944 17.0271 28.2101 14.5991 25.6413 12.8749Q21.8409 10.2357 15.5598 10.2357Q9.96483 10.2357 6.00613 12.2943Q3.49853 13.5982 1.71101 15.5587Q0.858713 16.4935 0.170124 17.5775Q0.0229914 17.8091 -0.116671 18.0476L0.36809 18.3079L7.74796 22.2702C8.45173 21.0738 9.36663 20.1413 10.4927 19.4727C11.6539 18.8041 12.9383 18.4698 14.3458 18.4698C15.7181 18.4698 16.8266 18.7865 17.6711 19.4199C18.5508 20.0181 18.9907 20.8275 18.9907 21.8479C18.9907 22.5869 18.7444 23.2907 18.2517 23.9592ZM12.7487 48.1352Q14.2204 48.9475 16.1404 48.9475Q18.1717 48.9475 19.6961 48.0685Q20.3154 47.7113 20.8512 47.2091Q21.8139 46.2764 22.2774 45.14Q22.7075 44.0855 22.7075 42.8555Q22.7075 41.3977 22.1282 40.2265Q21.6668 39.2934 20.8378 38.5421Q20.3804 38.1276 19.8613 37.8158Q18.2852 36.869 16.1404 36.869Q14.0132 36.869 12.4418 37.8036Q11.907 38.1217 11.4366 38.548Q10.6818 39.2541 10.2417 40.1201Q9.62614 41.3313 9.62614 42.8555Q9.62614 44.0708 10.0475 45.1163Q10.5121 46.269 11.489 47.2153Q12.0714 47.7613 12.7487 48.1352ZM11.865 46.8142C12.991 47.8698 14.4162 48.3977 16.1404 48.3977C17.8998 48.3977 19.3426 47.8698 20.4686 46.8142C21.5946 45.7233 22.1576 44.4038 22.1576 42.8555C22.1576 41.272 21.5946 39.97 20.4686 38.9495C19.3426 37.9291 17.8998 37.4188 16.1404 37.4188C14.381 37.4188 12.9383 37.9291 11.8122 38.9495C10.7214 39.97 10.176 41.272 10.176 42.8555Q10.176 43.969 10.5642 44.9248Q10.9858 45.9624 11.865 46.8142Z" fill="rgb(32,32,39)" fill-rule="evenodd" transform="matrix(0.984808,0.173648,-0.174411,0.984673,-74.4048,252.191)" />
				</g>
				<g id="Frame 2043683105" customFrame="url(#clipPath_32)">
					<rect id="Frame 2043683105" width="114.411125" height="152.548172" x="0.000000" y="0.000000" rx="20.445749" fill="rgb(188,236,48)" transform="matrix(0.984808,0.173648,-0.174411,0.984673,12.5479,219.52)" />
					<rect id="Frame 2043683105" width="113.729599" height="151.866653" x="0.340762" y="0.340762" rx="20.104986" stroke="rgb(32,32,39)" stroke-width="0.681524932" transform="matrix(0.984808,0.173648,-0.174411,0.984673,12.5479,219.52)" />
					<path id="?" d="M14.3511 42.7716C14.3511 40.5908 14.8309 38.8024 15.7905 37.4067C16.7501 35.9673 18.1458 34.3971 19.9778 32.696C21.2427 31.5183 22.1805 30.5369 22.7911 29.7518C23.4017 28.923 23.7071 28.0507 23.7071 27.1347C23.7071 25.8698 23.1619 24.8666 22.0714 24.1251C21.0246 23.34 19.6506 22.9474 17.9495 22.9474C16.2048 22.9474 14.6128 23.3618 13.1734 24.1905C11.7777 25.0193 10.6436 26.1751 9.77125 27.6581L0.0227128 22.424C1.81103 19.3708 4.34086 16.9936 7.61218 15.2925C10.8835 13.5915 14.8309 12.7409 19.4544 12.7409C24.6448 12.7409 28.8103 13.8314 31.9508 16.0122C35.1349 18.1495 36.7269 21.1591 36.7269 25.0411C36.7269 26.8294 36.4216 28.4214 35.811 29.8172C35.2003 31.1693 34.4588 32.3252 33.5865 33.2848C32.7577 34.2008 31.6673 35.2476 30.3151 36.4253C28.8321 37.6902 27.7417 38.7806 27.0438 39.6966C26.3459 40.5689 25.997 41.594 25.997 42.7716L14.3511 42.7716ZM20.174 60.0442C18.0368 60.0442 16.2703 59.3899 14.8745 58.0814C13.4787 56.7293 12.7809 55.0936 12.7809 53.1744C12.7809 51.2116 13.4569 49.5978 14.8091 48.3329C16.2048 47.068 17.9932 46.4355 20.174 46.4355C22.3549 46.4355 24.1432 47.068 25.539 48.3329C26.9348 49.5978 27.6327 51.2116 27.6327 53.1744C27.6327 55.0936 26.9348 56.7293 25.539 58.0814C24.1432 59.3899 22.3549 60.0442 20.174 60.0442Z" fill="rgb(255,255,255)" fill-rule="nonzero" transform="matrix(0.984808,0.173648,-0.174411,0.984673,42.1638,265.637)" />
					<path id="?" d="M15.3374 37.0952Q13.8013 39.3295 13.8013 42.7716L13.8013 43.3214L26.5468 43.3214L26.5468 42.7716Q26.5468 41.7731 26.9198 40.9419Q27.1346 40.4632 27.4732 40.0401L27.4771 40.0351L27.4812 40.0298Q28.4923 38.7027 30.6762 36.8399Q32.7291 35.0519 33.9933 33.6547Q35.3603 32.151 36.3147 30.0376Q37.2767 27.8386 37.2767 25.0411Q37.2767 21.9931 36.0189 19.6153Q35.945 19.4756 35.8669 19.3384Q34.6137 17.1375 32.2644 15.5606Q27.4123 12.1911 19.4544 12.1911Q12.3847 12.1911 7.35852 14.8047Q4.18006 16.4575 1.90765 18.9398Q0.571295 20.3995 -0.451718 22.1461L-0.740107 22.6385L9.97705 28.3927L10.2452 27.9369Q11.1822 26.344 12.5375 25.2879Q12.9712 24.95 13.4478 24.667Q14.0697 24.3089 14.7327 24.0605Q16.2356 23.4973 17.9495 23.4973Q20.3179 23.4973 21.7415 24.565L21.7517 24.5726L21.7622 24.5798Q22.4698 25.0609 22.8151 25.6962Q22.8247 25.7139 22.834 25.7317Q23.1573 26.3485 23.1573 27.1347Q23.1573 27.34 23.1333 27.5424Q23.0185 28.5138 22.3526 29.42Q21.4635 30.5615 19.6036 32.2931Q16.8083 34.8888 15.3374 37.0952ZM22.7911 29.7518Q21.8751 30.9295 19.9778 32.696Q17.2299 35.2476 15.7905 37.4067C14.9128 38.6833 14.4365 40.2884 14.3616 42.2218C14.3546 42.4022 14.3511 42.5855 14.3511 42.7716L25.997 42.7716Q25.997 41.677 26.399 40.7582Q26.6457 40.1943 27.0438 39.6966C27.7417 38.7806 28.8321 37.6902 30.3151 36.4253Q32.3434 34.6588 33.5865 33.2848C34.4588 32.3252 35.2003 31.1693 35.811 29.8172C36.4216 28.4214 36.7269 26.8294 36.7269 25.0411C36.7269 21.1591 35.1349 18.1495 31.9508 16.0122Q27.2401 12.7409 19.4544 12.7409Q12.5192 12.7409 7.61218 15.2925C4.51102 16.9051 2.07624 19.1253 0.30781 21.953C0.210771 22.1082 0.115739 22.2652 0.0227128 22.424L0.50747 22.6843L9.77125 27.6581Q10.7287 26.0304 12.1065 24.9282Q12.6117 24.524 13.1734 24.1905C14.6128 23.3618 16.2048 22.9474 17.9495 22.9474C19.6506 22.9474 21.0246 23.34 22.0714 24.1251C23.1619 24.8666 23.7071 25.8698 23.7071 27.1347Q23.7071 27.4232 23.6667 27.706Q23.5147 28.7697 22.7911 29.7518ZM16.0196 59.5955Q17.8199 60.594 20.174 60.594Q22.6702 60.594 24.5367 59.51Q25.2789 59.0788 25.9216 58.4763Q27.095 57.3395 27.6594 55.9546Q28.1825 54.6711 28.1825 53.1744Q28.1825 51.3967 27.4752 49.9693Q26.9142 48.8371 25.9082 47.9255Q25.3589 47.4276 24.7362 47.0513Q22.8073 45.8857 20.174 45.8857Q17.5583 45.8857 15.6341 47.0392Q14.9957 47.4218 14.4335 47.9314Q13.5186 48.7872 12.9838 49.8367Q12.231 51.3138 12.231 53.1744Q12.231 54.6565 12.7455 55.931Q13.311 57.3323 14.4985 58.4825Q15.2019 59.142 16.0196 59.5955ZM14.8745 58.0814C16.2703 59.3899 18.0368 60.0442 20.174 60.0442C22.3549 60.0442 24.1432 59.3899 25.539 58.0814Q26.6288 57.0257 27.1514 55.7394Q27.6327 54.5547 27.6327 53.1744C27.6327 51.2116 26.9348 49.5978 25.539 48.3329C24.1432 47.068 22.3549 46.4355 20.174 46.4355C17.9932 46.4355 16.2048 47.068 14.8091 48.3329C13.4569 49.5978 12.7809 51.2116 12.7809 53.1744Q12.7809 54.5547 13.2622 55.7394Q13.7847 57.0257 14.8745 58.0814Z" fill="rgb(32,32,39)" fill-rule="evenodd" transform="matrix(0.984808,0.173648,-0.174411,0.984673,42.1638,265.637)" />
				</g>
				<g id="Frame 2043683106" customFrame="url(#clipPath_33)">
					<rect id="Frame 2043683106" width="114.411125" height="152.548172" x="0.000000" y="0.000000" rx="20.445749" fill="rgb(188,236,48)" transform="matrix(0.984808,0.173648,-0.174411,0.984673,131.834,240.553)" />
					<rect id="Frame 2043683106" width="113.729599" height="151.866653" x="0.340762" y="0.340762" rx="20.104986" stroke="rgb(32,32,39)" stroke-width="0.681524932" transform="matrix(0.984808,0.173648,-0.174411,0.984673,131.834,240.553)" />
					<path id="?" d="M14.3511 42.7716C14.3511 40.5908 14.8309 38.8024 15.7905 37.4067C16.7501 35.9673 18.1458 34.3971 19.9778 32.696C21.2427 31.5183 22.1805 30.5369 22.7911 29.7518C23.4017 28.923 23.7071 28.0507 23.7071 27.1347C23.7071 25.8698 23.1619 24.8666 22.0714 24.1251C21.0246 23.34 19.6506 22.9474 17.9495 22.9474C16.2048 22.9474 14.6128 23.3618 13.1734 24.1905C11.7777 25.0193 10.6436 26.1751 9.77125 27.6581L0.0227128 22.424C1.81103 19.3708 4.34086 16.9936 7.61218 15.2925C10.8835 13.5915 14.8309 12.7409 19.4544 12.7409C24.6448 12.7409 28.8103 13.8314 31.9508 16.0122C35.1349 18.1495 36.7269 21.1591 36.7269 25.0411C36.7269 26.8294 36.4216 28.4214 35.811 29.8172C35.2003 31.1693 34.4588 32.3252 33.5865 33.2848C32.7577 34.2008 31.6673 35.2476 30.3151 36.4253C28.8321 37.6902 27.7417 38.7806 27.0438 39.6966C26.3459 40.5689 25.997 41.594 25.997 42.7716L14.3511 42.7716ZM20.174 60.0442C18.0368 60.0442 16.2703 59.3899 14.8745 58.0814C13.4787 56.7293 12.7809 55.0936 12.7809 53.1744C12.7809 51.2116 13.4569 49.5978 14.8091 48.3329C16.2048 47.068 17.9932 46.4355 20.174 46.4355C22.3549 46.4355 24.1432 47.068 25.539 48.3329C26.9348 49.5978 27.6327 51.2116 27.6327 53.1744C27.6327 55.0936 26.9348 56.7293 25.539 58.0814C24.1432 59.3899 22.3549 60.0442 20.174 60.0442Z" fill="rgb(255,255,255)" fill-rule="nonzero" transform="matrix(0.984808,0.173648,-0.174411,0.984673,161.451,286.671)" />
					<path id="?" d="M15.3374 37.0952Q13.8013 39.3295 13.8013 42.7716L13.8013 43.3214L26.5468 43.3214L26.5468 42.7716Q26.5468 41.7731 26.9198 40.9419Q27.1346 40.4632 27.4732 40.0401L27.4771 40.0351L27.4812 40.0298Q28.4923 38.7027 30.6762 36.8399Q32.7291 35.0519 33.9933 33.6547Q35.3603 32.151 36.3147 30.0376Q37.2767 27.8386 37.2767 25.0411Q37.2767 21.9931 36.0189 19.6153Q35.945 19.4756 35.8669 19.3384Q34.6137 17.1375 32.2644 15.5606Q27.4123 12.1911 19.4544 12.1911Q12.3847 12.1911 7.35852 14.8047Q4.18006 16.4575 1.90765 18.9398Q0.571295 20.3995 -0.451718 22.1461L-0.740107 22.6385L9.97705 28.3927L10.2452 27.9369Q11.1822 26.344 12.5375 25.2879Q12.9712 24.95 13.4478 24.667Q14.0697 24.3089 14.7327 24.0605Q16.2356 23.4973 17.9495 23.4973Q20.3179 23.4973 21.7415 24.565L21.7517 24.5726L21.7622 24.5798Q22.4698 25.0609 22.8151 25.6962Q22.8247 25.7139 22.834 25.7317Q23.1573 26.3485 23.1573 27.1347Q23.1573 27.34 23.1333 27.5424Q23.0185 28.5138 22.3526 29.42Q21.4635 30.5615 19.6036 32.2931Q16.8083 34.8888 15.3374 37.0952ZM22.7911 29.7518Q21.8751 30.9295 19.9778 32.696Q17.2299 35.2476 15.7905 37.4067C14.9128 38.6833 14.4365 40.2884 14.3616 42.2218C14.3546 42.4022 14.3511 42.5855 14.3511 42.7716L25.997 42.7716Q25.997 41.677 26.399 40.7582Q26.6457 40.1943 27.0438 39.6966C27.7417 38.7806 28.8321 37.6902 30.3151 36.4253Q32.3434 34.6588 33.5865 33.2848C34.4588 32.3252 35.2003 31.1693 35.811 29.8172C36.4216 28.4214 36.7269 26.8294 36.7269 25.0411C36.7269 21.1591 35.1349 18.1495 31.9508 16.0122Q27.2401 12.7409 19.4544 12.7409Q12.5192 12.7409 7.61218 15.2925C4.51102 16.9051 2.07624 19.1253 0.30781 21.953C0.210771 22.1082 0.115739 22.2652 0.0227128 22.424L0.50747 22.6843L9.77125 27.6581Q10.7287 26.0304 12.1065 24.9282Q12.6117 24.524 13.1734 24.1905C14.6128 23.3618 16.2048 22.9474 17.9495 22.9474C19.6506 22.9474 21.0246 23.34 22.0714 24.1251C23.1619 24.8666 23.7071 25.8698 23.7071 27.1347Q23.7071 27.4232 23.6667 27.706Q23.5147 28.7697 22.7911 29.7518ZM16.0196 59.5955Q17.8199 60.594 20.174 60.594Q22.6702 60.594 24.5367 59.51Q25.2789 59.0788 25.9216 58.4763Q27.095 57.3395 27.6594 55.9546Q28.1825 54.6711 28.1825 53.1744Q28.1825 51.3967 27.4752 49.9693Q26.9142 48.8371 25.9082 47.9255Q25.3589 47.4276 24.7362 47.0513Q22.8073 45.8857 20.174 45.8857Q17.5583 45.8857 15.6341 47.0392Q14.9957 47.4218 14.4335 47.9314Q13.5186 48.7872 12.9838 49.8367Q12.231 51.3138 12.231 53.1744Q12.231 54.6565 12.7455 55.931Q13.311 57.3323 14.4985 58.4825Q15.2019 59.142 16.0196 59.5955ZM14.8745 58.0814C16.2703 59.3899 18.0368 60.0442 20.174 60.0442C22.3549 60.0442 24.1432 59.3899 25.539 58.0814Q26.6288 57.0257 27.1514 55.7394Q27.6327 54.5547 27.6327 53.1744C27.6327 51.2116 26.9348 49.5978 25.539 48.3329C24.1432 47.068 22.3549 46.4355 20.174 46.4355C17.9932 46.4355 16.2048 47.068 14.8091 48.3329C13.4569 49.5978 12.7809 51.2116 12.7809 53.1744Q12.7809 54.5547 13.2622 55.7394Q13.7847 57.0257 14.8745 58.0814Z" fill="rgb(32,32,39)" fill-rule="evenodd" transform="matrix(0.984808,0.173648,-0.174411,0.984673,161.451,286.671)" />
				</g>
				<g id="Frame 2043683107" customFrame="url(#clipPath_34)">
					<rect id="Frame 2043683107" width="114.411125" height="152.548172" x="0.000000" y="0.000000" rx="20.445749" fill="rgb(188,236,48)" transform="matrix(0.984808,0.173648,-0.174411,0.984673,251.122,261.587)" />
					<rect id="Frame 2043683107" width="113.729599" height="151.866653" x="0.340762" y="0.340762" rx="20.104986" stroke="rgb(32,32,39)" stroke-width="0.681524932" transform="matrix(0.984808,0.173648,-0.174411,0.984673,251.122,261.587)" />
					<path id="?" d="M11.4427 34.463C11.4427 32.7036 11.8298 31.2609 12.604 30.1348C13.3781 28.9736 14.5041 27.7068 15.9821 26.3345C17.0025 25.3844 17.7591 24.5926 18.2517 23.9592C18.7444 23.2907 18.9907 22.5869 18.9907 21.8479C18.9907 20.8275 18.5508 20.0181 17.6711 19.4199C16.8266 18.7865 15.7181 18.4698 14.3458 18.4698C12.9383 18.4698 11.6539 18.8041 10.4927 19.4727C9.36663 20.1413 8.45173 21.0738 7.74796 22.2702L-0.116671 18.0476C1.32606 15.5844 3.36699 13.6666 6.00613 12.2943C8.64526 10.9219 11.8298 10.2357 15.5598 10.2357C19.7472 10.2357 23.1077 11.1154 25.6413 12.8749C28.2101 14.5991 29.4944 17.0271 29.4944 20.1589C29.4944 21.6016 29.2481 22.886 28.7555 24.012C28.2628 25.1029 27.6646 26.0354 26.9609 26.8095C26.2923 27.5485 25.4126 28.393 24.3217 29.3431C23.1253 30.3636 22.2456 31.2433 21.6826 31.9822C21.1196 32.686 20.8381 33.5129 20.8381 34.463L11.4427 34.463ZM16.1404 48.3977C14.4162 48.3977 12.991 47.8698 11.865 46.8142C10.739 45.7233 10.176 44.4038 10.176 42.8555C10.176 41.272 10.7214 39.97 11.8122 38.9495C12.9383 37.9291 14.381 37.4188 16.1404 37.4188C17.8998 37.4188 19.3426 37.9291 20.4686 38.9495C21.5946 39.97 22.1576 41.272 22.1576 42.8555C22.1576 44.4038 21.5946 45.7233 20.4686 46.8142C19.3426 47.8698 17.8998 48.3977 16.1404 48.3977Z" fill="rgb(255,255,255)" fill-rule="nonzero" transform="matrix(0.984808,0.173648,-0.174411,0.984673,283.456,315.292)" />
					<path id="?" d="M12.1509 29.8233Q10.8929 31.6531 10.8929 34.463L10.8929 35.0128L21.3879 35.0128L21.3879 34.463Q21.3879 33.676 21.6832 33.0224Q21.8503 32.6527 22.1119 32.3257L22.116 32.3207L22.1199 32.3154Q22.9288 31.2539 24.6828 29.7577Q26.3437 28.3111 27.3677 27.1794Q28.4818 25.9538 29.2592 24.2324Q30.0443 22.438 30.0443 20.1589Q30.0443 17.6736 29.0172 15.732Q28.9495 15.604 28.8774 15.4785Q27.8552 13.6987 25.9549 12.4233Q22.0131 9.68592 15.5598 9.68592Q9.83042 9.68592 5.75247 11.8065Q3.17471 13.1469 1.33051 15.1595Q0.241908 16.3475 -0.591101 17.7697L-0.87949 18.2621L7.95376 23.0048L8.22186 22.549Q8.97385 21.2706 10.0629 20.4278Q10.3989 20.1678 10.767 19.9492Q11.2567 19.6673 11.7785 19.4708Q12.9773 19.0197 14.3458 19.0197Q16.2211 19.0197 17.3412 19.8598L17.3514 19.8674L17.3619 19.8746Q17.9115 20.2483 18.1777 20.7381Q18.18 20.7424 18.1823 20.7467Q18.4409 21.2279 18.4409 21.8479Q18.4409 21.9978 18.4244 22.1458Q18.3392 22.9111 17.8132 23.6274Q17.1011 24.5413 15.6079 25.9316Q13.3436 28.0341 12.1509 29.8233ZM18.2517 23.9592C17.7591 24.5926 17.0025 25.3844 15.9821 26.3345Q13.7652 28.393 12.604 30.1348Q11.5661 31.6445 11.4558 33.9132Q11.4427 34.1827 11.4427 34.463L20.8381 34.463C20.8381 33.5129 21.1196 32.686 21.6826 31.9822C22.2456 31.2433 23.1253 30.3636 24.3217 29.3431C25.4126 28.393 26.2923 27.5485 26.9609 26.8095C27.6646 26.0354 28.2628 25.1029 28.7555 24.012C29.2481 22.886 29.4944 21.6016 29.4944 20.1589C29.4944 17.0271 28.2101 14.5991 25.6413 12.8749Q21.8409 10.2357 15.5598 10.2357Q9.96483 10.2357 6.00613 12.2943Q3.49853 13.5982 1.71101 15.5587Q0.858713 16.4935 0.170124 17.5775Q0.0229914 17.8091 -0.116671 18.0476L0.36809 18.3079L7.74796 22.2702C8.45173 21.0738 9.36663 20.1413 10.4927 19.4727C11.6539 18.8041 12.9383 18.4698 14.3458 18.4698C15.7181 18.4698 16.8266 18.7865 17.6711 19.4199C18.5508 20.0181 18.9907 20.8275 18.9907 21.8479C18.9907 22.5869 18.7444 23.2907 18.2517 23.9592ZM12.7487 48.1352Q14.2204 48.9475 16.1404 48.9475Q18.1717 48.9475 19.6961 48.0685Q20.3154 47.7113 20.8512 47.2091Q21.8139 46.2764 22.2774 45.14Q22.7075 44.0855 22.7075 42.8555Q22.7075 41.3977 22.1282 40.2265Q21.6668 39.2934 20.8378 38.5421Q20.3804 38.1276 19.8613 37.8158Q18.2852 36.869 16.1404 36.869Q14.0132 36.869 12.4418 37.8036Q11.907 38.1217 11.4366 38.548Q10.6818 39.2541 10.2417 40.1201Q9.62614 41.3313 9.62614 42.8555Q9.62614 44.0708 10.0475 45.1163Q10.5121 46.269 11.489 47.2153Q12.0714 47.7613 12.7487 48.1352ZM11.865 46.8142C12.991 47.8698 14.4162 48.3977 16.1404 48.3977C17.8998 48.3977 19.3426 47.8698 20.4686 46.8142C21.5946 45.7233 22.1576 44.4038 22.1576 42.8555C22.1576 41.272 21.5946 39.97 20.4686 38.9495C19.3426 37.9291 17.8998 37.4188 16.1404 37.4188C14.381 37.4188 12.9383 37.9291 11.8122 38.9495C10.7214 39.97 10.176 41.272 10.176 42.8555Q10.176 43.969 10.5642 44.9248Q10.9858 45.9624 11.865 46.8142Z" fill="rgb(32,32,39)" fill-rule="evenodd" transform="matrix(0.984808,0.173648,-0.174411,0.984673,283.456,315.292)" />
				</g>
				<g id="Frame 2043683108" customFrame="url(#clipPath_35)">
					<rect id="Frame 2043683108" width="114.411125" height="152.548172" x="0.000000" y="0.000000" rx="20.445749" fill="rgb(188,236,48)" transform="matrix(0.984808,0.173648,-0.174411,0.984673,370.408,282.62)" />
					<rect id="Frame 2043683108" width="113.729599" height="151.866653" x="0.340762" y="0.340762" rx="20.104986" stroke="rgb(32,32,39)" stroke-width="0.681524932" transform="matrix(0.984808,0.173648,-0.174411,0.984673,370.408,282.62)" />
					<path id="?" d="M11.4427 34.463C11.4427 32.7036 11.8298 31.2609 12.604 30.1348C13.3781 28.9736 14.5041 27.7068 15.9821 26.3345C17.0025 25.3844 17.7591 24.5926 18.2517 23.9592C18.7444 23.2907 18.9907 22.5869 18.9907 21.8479C18.9907 20.8275 18.5508 20.0181 17.6711 19.4199C16.8266 18.7865 15.7181 18.4698 14.3458 18.4698C12.9383 18.4698 11.6539 18.8041 10.4927 19.4727C9.36663 20.1413 8.45173 21.0738 7.74796 22.2702L-0.116671 18.0476C1.32606 15.5844 3.36699 13.6666 6.00613 12.2943C8.64526 10.9219 11.8298 10.2357 15.5598 10.2357C19.7472 10.2357 23.1077 11.1154 25.6413 12.8749C28.2101 14.5991 29.4944 17.0271 29.4944 20.1589C29.4944 21.6016 29.2481 22.886 28.7555 24.012C28.2628 25.1029 27.6646 26.0354 26.9609 26.8095C26.2923 27.5485 25.4126 28.393 24.3217 29.3431C23.1253 30.3636 22.2456 31.2433 21.6826 31.9822C21.1196 32.686 20.8381 33.5129 20.8381 34.463L11.4427 34.463ZM16.1404 48.3977C14.4162 48.3977 12.991 47.8698 11.865 46.8142C10.739 45.7233 10.176 44.4038 10.176 42.8555C10.176 41.272 10.7214 39.97 11.8122 38.9495C12.9383 37.9291 14.381 37.4188 16.1404 37.4188C17.8998 37.4188 19.3426 37.9291 20.4686 38.9495C21.5946 39.97 22.1576 41.272 22.1576 42.8555C22.1576 44.4038 21.5946 45.7233 20.4686 46.8142C19.3426 47.8698 17.8998 48.3977 16.1404 48.3977Z" fill="rgb(255,255,255)" fill-rule="nonzero" transform="matrix(0.984808,0.173648,-0.174411,0.984673,402.743,336.325)" />
					<path id="?" d="M12.1509 29.8233Q10.8929 31.6531 10.8929 34.463L10.8929 35.0128L21.3879 35.0128L21.3879 34.463Q21.3879 33.676 21.6832 33.0224Q21.8503 32.6527 22.1119 32.3257L22.116 32.3207L22.1199 32.3154Q22.9288 31.2539 24.6828 29.7577Q26.3437 28.3111 27.3677 27.1794Q28.4818 25.9538 29.2592 24.2324Q30.0443 22.438 30.0443 20.1589Q30.0443 17.6736 29.0172 15.732Q28.9495 15.604 28.8774 15.4785Q27.8552 13.6987 25.9549 12.4233Q22.0131 9.68592 15.5598 9.68592Q9.83042 9.68592 5.75247 11.8065Q3.17471 13.1469 1.33051 15.1595Q0.241908 16.3475 -0.591101 17.7697L-0.87949 18.2621L7.95376 23.0048L8.22186 22.549Q8.97385 21.2706 10.0629 20.4278Q10.3989 20.1678 10.767 19.9492Q11.2567 19.6673 11.7785 19.4708Q12.9773 19.0197 14.3458 19.0197Q16.2211 19.0197 17.3412 19.8598L17.3514 19.8674L17.3619 19.8746Q17.9115 20.2483 18.1777 20.7381Q18.18 20.7424 18.1823 20.7467Q18.4409 21.2279 18.4409 21.8479Q18.4409 21.9978 18.4244 22.1458Q18.3392 22.9111 17.8132 23.6274Q17.1011 24.5413 15.6079 25.9316Q13.3436 28.0341 12.1509 29.8233ZM18.2517 23.9592C17.7591 24.5926 17.0025 25.3844 15.9821 26.3345Q13.7652 28.393 12.604 30.1348Q11.5661 31.6445 11.4558 33.9132Q11.4427 34.1827 11.4427 34.463L20.8381 34.463C20.8381 33.5129 21.1196 32.686 21.6826 31.9822C22.2456 31.2433 23.1253 30.3636 24.3217 29.3431C25.4126 28.393 26.2923 27.5485 26.9609 26.8095C27.6646 26.0354 28.2628 25.1029 28.7555 24.012C29.2481 22.886 29.4944 21.6016 29.4944 20.1589C29.4944 17.0271 28.2101 14.5991 25.6413 12.8749Q21.8409 10.2357 15.5598 10.2357Q9.96483 10.2357 6.00613 12.2943Q3.49853 13.5982 1.71101 15.5587Q0.858713 16.4935 0.170124 17.5775Q0.0229914 17.8091 -0.116671 18.0476L0.36809 18.3079L7.74796 22.2702C8.45173 21.0738 9.36663 20.1413 10.4927 19.4727C11.6539 18.8041 12.9383 18.4698 14.3458 18.4698C15.7181 18.4698 16.8266 18.7865 17.6711 19.4199C18.5508 20.0181 18.9907 20.8275 18.9907 21.8479C18.9907 22.5869 18.7444 23.2907 18.2517 23.9592ZM12.7487 48.1352Q14.2204 48.9475 16.1404 48.9475Q18.1717 48.9475 19.6961 48.0685Q20.3154 47.7113 20.8512 47.2091Q21.8139 46.2764 22.2774 45.14Q22.7075 44.0855 22.7075 42.8555Q22.7075 41.3977 22.1282 40.2265Q21.6668 39.2934 20.8378 38.5421Q20.3804 38.1276 19.8613 37.8158Q18.2852 36.869 16.1404 36.869Q14.0132 36.869 12.4418 37.8036Q11.907 38.1217 11.4366 38.548Q10.6818 39.2541 10.2417 40.1201Q9.62614 41.3313 9.62614 42.8555Q9.62614 44.0708 10.0475 45.1163Q10.5121 46.269 11.489 47.2153Q12.0714 47.7613 12.7487 48.1352ZM11.865 46.8142C12.991 47.8698 14.4162 48.3977 16.1404 48.3977C17.8998 48.3977 19.3426 47.8698 20.4686 46.8142C21.5946 45.7233 22.1576 44.4038 22.1576 42.8555C22.1576 41.272 21.5946 39.97 20.4686 38.9495C19.3426 37.9291 17.8998 37.4188 16.1404 37.4188C14.381 37.4188 12.9383 37.9291 11.8122 38.9495C10.7214 39.97 10.176 41.272 10.176 42.8555Q10.176 43.969 10.5642 44.9248Q10.9858 45.9624 11.865 46.8142Z" fill="rgb(32,32,39)" fill-rule="evenodd" transform="matrix(0.984808,0.173648,-0.174411,0.984673,402.743,336.325)" />
				</g>
			</g>
		</g>
		<g id="Group 1597880560">
			<g id="Frame 2043683065" filter="url(#filter_0)" customFrame="url(#clipPath_36)">
				<rect id="Frame 2043683065" width="148.448456" height="197.931335" x="0.000000" y="0.000000" rx="20.445749" fill="rgb(225,255,143)" transform="matrix(0.984808,0.173648,-0.174411,0.984673,146.736,58.4386)" />
				<rect id="Frame 2043683065" width="149.129974" height="198.612854" x="-0.340762" y="-0.340762" rx="20.786512" stroke="rgb(32,32,39)" stroke-width="0.681524932" transform="matrix(0.984808,0.173648,-0.174411,0.984673,146.736,58.4386)" />
				<rect id="Frame 2043683065" width="149.129974" height="198.612854" x="-0.340762" y="-0.340762" rx="20.786512" stroke="rgb(0,0,0)" stroke-opacity="0.200000003" stroke-width="0.681524932" transform="matrix(0.984808,0.173648,-0.174411,0.984673,146.736,58.4386)" />
			</g>
			<path id="?" d="M18.9681 57.0288C18.9681 54.121 19.6079 51.7366 20.8873 49.8756C22.1668 47.9564 24.0278 45.8627 26.4704 43.5946C28.1569 42.0244 29.4073 40.7159 30.2215 39.669C31.0357 38.5641 31.4428 37.4009 31.4428 36.1796C31.4428 34.4931 30.7158 33.1555 29.2619 32.1668C27.8661 31.12 26.0342 30.5966 23.7661 30.5966C21.4398 30.5966 19.3171 31.1491 17.3979 32.254C15.5369 33.359 14.0248 34.9002 12.8617 36.8775L-0.13638 29.8987C2.24805 25.8277 5.62114 22.6582 9.9829 20.3901C14.3447 18.1219 19.6079 16.9879 25.7725 16.9879C32.6931 16.9879 38.2471 18.4418 42.4344 21.3496C46.6798 24.1993 48.8026 28.2122 48.8026 33.3881C48.8026 35.7725 48.3955 37.8953 47.5813 39.7563C46.7671 41.5591 45.7784 43.1003 44.6153 44.3797C43.5103 45.601 42.0564 46.9968 40.2535 48.567C38.2762 50.2536 36.8223 51.7075 35.8918 52.9288C34.9612 54.0919 34.496 55.4586 34.496 57.0288L18.9681 57.0288ZM26.7321 80.0589C23.8824 80.0589 21.527 79.1866 19.666 77.4419C17.805 75.639 16.8745 73.4581 16.8745 70.8992C16.8745 68.2822 17.7759 66.1304 19.5788 64.4438C21.4398 62.7573 23.8242 61.914 26.7321 61.914C29.6399 61.914 32.0243 62.7573 33.8853 64.4438C35.7464 66.1304 36.6769 68.2822 36.6769 70.8992C36.6769 73.4581 35.7464 75.639 33.8853 77.4419C32.0243 79.1866 29.6399 80.0589 26.7321 80.0589Z" fill="rgb(255,255,255)" fill-rule="nonzero" transform="matrix(0.984808,0.173648,-0.174411,0.984673,185.112,116.909)" />
			<path id="?" d="M20.3257 49.4895Q18.2866 52.4554 18.2866 57.0288L18.2866 57.7104L35.1775 57.7104L35.1775 57.0288Q35.1775 55.6884 35.6776 54.5719Q35.967 53.9257 36.4239 53.3545L36.4291 53.3481L36.4339 53.3418Q37.7854 51.568 40.7011 49.081Q43.436 46.699 45.1196 44.8382Q46.9367 42.8393 48.2057 40.0294Q49.4841 37.1073 49.4841 33.3881Q49.4841 29.337 47.813 26.1778Q47.7183 25.999 47.6184 25.8231Q45.953 22.8906 42.8231 20.7899Q36.3669 16.3064 25.7725 16.3064Q16.3589 16.3064 9.66848 19.7854Q5.43722 21.9857 2.41269 25.2903Q0.635886 27.2317 -0.724457 29.5543L-1.08193 30.1646L13.1168 37.788L13.4491 37.2231Q14.7005 35.0957 16.5099 33.6832Q17.0948 33.2266 17.7379 32.8447Q18.573 32.3639 19.4633 32.0307Q21.4738 31.2781 23.7661 31.2781Q26.9411 31.2781 28.853 32.712L28.8656 32.7215L28.8787 32.7304Q29.8324 33.379 30.2987 34.237Q30.3142 34.2654 30.3291 34.2941Q30.7612 35.1244 30.7612 36.1796Q30.7612 36.4611 30.7279 36.7385Q30.5712 38.0424 29.678 39.2577Q28.49 40.7831 26.0066 43.0952Q22.2839 46.552 20.3257 49.4895ZM30.2215 39.669C29.4073 40.7159 28.1569 42.0244 26.4704 43.5946Q22.8065 46.9968 20.8873 49.8756C19.7093 51.5891 19.0735 53.7463 18.9802 56.3473C18.9721 56.5712 18.9681 56.7984 18.9681 57.0288L34.496 57.0288C34.496 55.4586 34.9612 54.0919 35.8918 52.9288C36.8223 51.7075 38.2762 50.2536 40.2535 48.567Q42.9578 46.2117 44.6153 44.3797C45.7784 43.1003 46.7671 41.5591 47.5813 39.7563Q48.8026 36.9648 48.8026 33.3881Q48.8026 29.3991 47.1215 26.3313Q45.5307 23.428 42.4344 21.3496Q36.1535 16.9879 25.7725 16.9879C19.6079 16.9879 14.3447 18.1219 9.9829 20.3901Q5.83852 22.5451 2.88424 25.7853Q1.40015 27.413 0.216392 29.3146Q0.0365442 29.6035 -0.13638 29.8987L0.464495 30.2213L12.8617 36.8775Q14.1383 34.7073 15.9754 33.2376Q16.649 32.6987 17.3979 32.254C19.3171 31.1491 21.4398 30.5966 23.7661 30.5966C26.0342 30.5966 27.8661 31.12 29.2619 32.1668C30.7158 33.1555 31.4428 34.4931 31.4428 36.1796Q31.4428 36.5643 31.3889 36.9413Q31.1863 38.3596 30.2215 39.669ZM21.2123 79.4124Q23.6034 80.7404 26.7321 80.7405Q30.0518 80.7404 32.5314 79.2971Q33.511 78.7269 34.3595 77.9314Q35.9162 76.4234 36.6648 74.5861Q37.3584 72.884 37.3584 70.8992Q37.3584 68.7954 36.6045 67.0521Q36.4898 66.7867 36.3578 66.5302Q35.6197 65.0959 34.343 63.9388Q33.6175 63.2814 32.7953 62.7836Q30.2332 61.2325 26.7321 61.2325Q23.2528 61.2325 20.6964 62.7684Q19.8548 63.2741 19.1132 63.9461Q17.9015 65.0797 17.1926 66.4696Q16.193 68.4295 16.193 70.8992Q16.193 72.8659 16.8758 74.5568Q17.6259 76.4143 19.1999 77.9391Q20.1306 78.8116 21.2123 79.4124ZM21.4706 78.7744Q23.7374 80.0589 26.7321 80.0589Q29.9392 80.0589 32.2975 78.644Q33.1464 78.1346 33.8853 77.4419C35.7464 75.639 36.6769 73.4581 36.6769 70.8992C36.6769 68.2822 35.7464 66.1304 33.8853 64.4438C32.0243 62.7573 29.6399 61.914 26.7321 61.914C23.8242 61.914 21.4398 62.7573 19.5788 64.4438C17.7759 66.1304 16.8745 68.2822 16.8745 70.8992C16.8745 73.4581 17.805 75.639 19.666 77.4419Q20.5018 78.2255 21.4706 78.7744Z" fill="rgb(32,32,39)" fill-rule="evenodd" transform="matrix(0.984808,0.173648,-0.174411,0.984673,185.112,116.909)" />
		</g>
	</g>
</svg>
